<svg preserveAspectRatio="none" width="100%" height="100%" overflow="visible" style="display: block;" viewBox="0 0 171 40" fill="none" xmlns="http://www.w3.org/2000/svg">
<g id="Group">
<path id="Vector" d="M24.805 30.2769L32.8029 34.8489L40.7196 30.2617L40.7234 20.9987L32.8469 16.4495C32.658 16.4107 31.6843 17.0221 31.4301 17.1662C25.8219 20.3339 20.2114 24.0543 14.5395 27.0162C13.2555 27.6871 12.231 27.8952 10.8452 27.2716C7.98345 25.4457 4.71113 23.9598 1.90248 22.0851C0.77553 21.3326 0.194222 20.4315 0.0727995 19.0485C0.254933 15.6635 -0.15942 12.0422 0.0727995 8.68542C0.168419 7.30475 0.764906 6.32432 1.90248 5.57185C4.86746 3.60947 8.37276 1.95815 11.4539 0.15816C12.3918 -0.118586 13.2312 -0.0248123 14.1122 0.383825C16.9474 2.27911 20.4345 3.72078 23.2052 5.64809C25.3969 7.17209 24.8308 9.25721 24.8687 11.6076L20.4049 14.1327V9.22062L12.4776 4.61811L4.56618 9.19851V18.4584L12.4199 23.0304L12.6438 22.9855L31.4399 12.0757C32.45 11.6946 33.5155 11.7609 34.4892 12.216C37.5308 13.6379 40.5648 16.015 43.6102 17.5291C44.6302 18.2137 45.131 19.3558 45.213 20.5649C45.4361 23.8508 45.0369 27.3867 45.213 30.6993C45.1295 31.9305 44.6135 33.084 43.5647 33.7656C40.5845 35.3338 37.703 37.3732 34.7168 38.8957C33.4495 39.5422 32.5077 39.7083 31.1728 39.0763C28.3391 37.178 24.8505 35.7386 22.0798 33.8113C19.8714 32.2759 20.4603 30.2182 20.4171 27.8518L24.8042 25.3267V30.2769H24.805Z" fill="var(--fill-0, white)"/>
<path id="Vector_2" d="M128.808 13.2949V11.8861L128.922 11.7717H133.246L133.364 12.0347C133.161 17.5186 133.62 23.1808 133.364 28.644C133.254 30.9922 132.471 32.8775 130.247 33.8923C129.828 34.0836 128.663 34.4663 128.24 34.4663H119.175V30.9632H127.026C127.874 30.9632 128.885 29.597 128.885 28.7927V26.3935C126.586 28.9985 121.853 28.6219 119.402 26.4323C115.98 23.3759 116.052 16.0898 119.595 13.1448C122.056 11.0985 126.52 10.8477 128.809 13.2949H128.808ZM124.924 15.374C119.583 15.7079 120.151 25.6082 126.231 24.2252C130.491 23.257 130.108 15.05 124.924 15.374Z" fill="var(--fill-0, white)"/>
<path id="Vector_3" d="M60.9138 26.5459V34.4656H56.5137V11.7717H60.9138V13.5229C62.7943 11.3005 66.2419 11.0512 68.7781 12.2154C73.8634 14.5491 74.2361 23.0595 70.1692 26.5086C67.7589 28.5525 63.2071 28.9924 60.9138 26.5459ZM64.388 15.374C59.2025 15.6339 59.4248 24.8168 65.0467 24.3358C69.9074 23.9203 69.7154 15.1071 64.388 15.374Z" fill="var(--fill-0, white)"/>
<path id="Vector_4" d="M82.2147 11.5659C88.4232 11.0924 92.8187 16.3986 91.0846 22.4504C88.8801 30.1436 76.9989 30.1345 74.8346 22.3574C73.3471 17.0138 76.6695 11.989 82.2155 11.5666L82.2147 11.5659ZM82.746 15.374C77.7836 15.6225 77.6538 23.9134 82.5729 24.3358C88.3898 24.8359 88.4429 15.0888 82.746 15.374Z" fill="var(--fill-0, white)"/>
<path id="Vector_5" d="M143.736 11.5658C149.98 11.0894 154.329 16.4291 152.571 22.4916C150.367 30.0941 138.652 30.1207 136.373 22.4916C134.769 17.1198 138.157 11.992 143.736 11.5658ZM144.267 15.374C139.008 15.637 139.198 24.749 144.85 24.3358C149.904 23.9668 149.692 15.1025 144.267 15.374Z" fill="var(--fill-0, white)"/>
<path id="Vector_6" d="M170.682 27.9168H166.206V18.2071C166.206 17.697 165.604 16.6579 165.221 16.3026C163.321 14.5385 159.835 16.0411 159.835 18.6645V27.9175H155.359V11.8869L155.473 11.7725H159.835V13.9812L160.403 13.2188C163.247 10.4689 168.396 11.1199 170.089 14.8434C170.288 15.281 170.683 16.4688 170.683 16.9125V27.9168H170.682Z" fill="var(--fill-0, white)"/>
<path id="Vector_7" d="M105.14 11.7718L108.515 22.1295L111.929 11.7718H116.367L108.326 34.4657H104.077L106.415 27.7437L100.621 11.9273L100.702 11.7718H105.14Z" fill="var(--fill-0, white)"/>
<path id="Vector_8" d="M98.5399 4.76531H94.1399V27.9159H98.5399V4.76531Z" fill="var(--fill-0, white)"/>
</g>
</svg>
