<svg preserveAspectRatio="none" width="100%" height="100%" overflow="visible" style="display: block;" viewBox="0 0 50 49" fill="none" xmlns="http://www.w3.org/2000/svg">
<g id="Group">
<path id="Vector" d="M29.6973 4.6356C27.3338 4.54466 23.4658 6.43014 21.6867 7.95913C18.9998 10.2678 16.5863 14.5735 17.2745 18.171L19.8088 18.0534C20.3616 12.163 24.6323 8.0137 30.5417 7.40865C30.6503 6.39618 31.0823 4.68895 29.6973 4.63681V4.6356ZM28.8273 9.40325C26.648 9.75004 24.0515 11.6828 22.935 13.5477C22.4859 14.2982 21.0339 17.5854 21.8697 18.1698L24.2931 18.1589C24.8251 17.5005 24.7299 16.6517 25.0557 15.8721C26.0184 13.5707 28.2099 12.4928 30.5393 11.9702V9.55239C30.2916 9.19955 29.2495 9.33414 28.8273 9.40204V9.40325ZM31.2128 16.9925C30.6003 17.1913 30.8468 19.0113 30.9492 19.5861C36.8025 20.1887 41.2795 24.3161 41.6724 30.2405C45.1682 31.1887 44.7668 29.5518 44.0957 26.9619C42.6412 21.3527 37.1759 16.7403 31.214 16.9925H31.2128ZM5.18717 18.5275C4.30985 18.787 4.76376 20.3839 4.91141 21.1041C6.15113 27.168 11.8104 32.2606 18.175 31.8702L18.2836 29.3433C18.0615 29.0292 16.0177 28.8582 15.4381 28.6909C10.9819 27.402 7.84965 23.2721 7.56168 18.6876C7.35058 18.3772 5.58984 18.4075 5.18717 18.5275ZM9.7678 18.513C8.59275 18.8949 10.2339 22.4573 10.6793 23.1994C12.1203 25.6002 15.3051 27.6409 18.1762 27.3014C19.0303 24.0324 17.959 24.8508 15.9737 24.0263C13.659 23.0648 12.606 20.8653 12.0484 18.5772L9.7678 18.5118V18.513ZM31.2128 21.5588C30.6064 21.7589 30.8358 23.5753 30.9554 24.1464C34.4915 24.9078 36.5134 26.7666 37.1881 30.3472H39.6212C40.468 25.8682 35.6226 21.3479 31.2128 21.5588ZM25.085 30.6904C24.6591 30.8322 24.3028 32.8523 23.9721 33.4986C22.9033 35.5926 20.8533 36.3747 18.696 36.9531L18.8046 39.48C22.4981 39.9335 26.138 36.8173 27.1947 33.4392C27.9476 31.0311 27.9585 30.3169 25.085 30.6904ZM29.679 30.688C29.291 30.8189 28.881 33.6865 28.6162 34.4153C27.1813 38.3742 22.985 41.1654 18.8058 41.4091C18.1677 43.9833 18.5105 44.5411 21.0571 44.0791C25.1496 43.337 29.0884 40.4112 30.8931 36.6754C31.3336 35.7648 32.8528 31.367 31.9632 30.7522L29.6802 30.6855L29.679 30.688Z" fill="var(--fill-0, white)"/>
<path id="Vector_2" d="M49.2351 29.1382V30.0076C48.4725 30.7024 47.3597 30.4235 46.4213 30.4126C46.0675 29.2461 46.0553 28.0093 45.7636 26.8247C44.3824 21.2204 39.7566 16.8687 34.1437 15.5397C33.4067 15.3651 31.7838 15.3469 31.2896 15.1141C30.6075 14.7916 30.538 12.2416 31.6044 12.1956C39.5772 12.6685 46.5446 18.0824 48.5628 25.7831L49.2351 29.137V29.1382Z" fill="var(--fill-0, white)"/>
<path id="Vector_3" d="M30.1976 5.41429e-05C31.0555 0.481427 30.5125 1.96313 30.6052 2.79614C29.3545 3.1017 28.0782 3.1793 26.8226 3.49577C20.2518 5.15329 15.4491 11.2863 15.2893 18.0194C15.1123 18.3128 13.1136 18.3638 12.6792 18.1722C11.9618 17.6775 12.916 13.6895 13.1929 12.7837C14.9561 7.01331 19.9333 2.30264 25.7756 0.715445L29.1056 0.00126667H30.2001L30.1976 5.41429e-05Z" fill="var(--fill-0, white)"/>
<path id="Vector_4" d="M3.21276e-05 18.9178C0.762657 18.223 1.87548 18.5019 2.81381 18.5128C3.1213 19.7557 3.1994 21.024 3.51787 22.2717C5.21761 28.9284 11.3528 33.433 18.1773 33.798C18.5495 34.0465 18.4055 35.8217 18.2859 36.3273C17.7539 37.0827 13.3234 35.9926 12.3546 35.6701C6.80875 33.8246 2.12074 28.7514 0.672362 23.1423L3.21276e-05 19.7884V18.919L3.21276e-05 18.9178Z" fill="var(--fill-0, white)"/>
<path id="Vector_5" d="M19.9125 48.9254H19.0376C18.3384 48.1676 18.6191 47.0618 18.63 46.1294C19.7563 45.8238 20.9216 45.785 22.0625 45.517C26.8652 44.387 31.3043 40.5578 32.993 35.9381C33.4811 34.6031 33.6141 31.9307 34.0277 31.0952C34.3023 30.5411 35.8776 30.5193 36.4035 30.6903C36.9733 30.8758 36.7878 32.5818 36.7354 33.1335C36.0813 39.9588 30.0963 46.5453 23.4608 48.2113L19.9125 48.9254Z" fill="var(--fill-0, white)"/>
<path id="Vector_6" d="M5.18685 18.5274C5.59074 18.4074 7.35026 18.3771 7.56136 18.6875C7.84933 23.2721 10.9828 27.4019 15.4377 28.6908C16.0173 28.8582 18.0612 29.0291 18.2833 29.3432L18.1747 31.8701C11.8089 32.2593 6.15081 27.1679 4.91108 21.1041C4.76344 20.3838 4.30831 18.7881 5.18685 18.5274Z" fill="var(--fill-0, white)"/>
<path id="Vector_7" d="M29.6973 4.63551C31.0822 4.68886 30.6503 6.39489 30.5417 7.40735C24.6323 8.01118 20.3616 12.1617 19.8088 18.0521L17.2744 18.1697C16.5863 14.5722 18.9998 10.2665 21.6867 7.95783C23.4657 6.42884 27.3338 4.54457 29.6973 4.6343V4.63551Z" fill="var(--fill-0, white)"/>
<path id="Vector_8" d="M29.6788 30.6878L31.9618 30.7545C32.8513 31.3693 31.3322 35.7671 30.8917 36.6777C29.087 40.4135 25.1482 43.3393 21.0557 44.0814C18.5091 44.5434 18.1662 43.9844 18.8044 41.4114C22.9848 41.1665 27.1798 38.3752 28.6148 34.4176C28.8796 33.6888 29.2896 30.82 29.6776 30.6902L29.6788 30.6878Z" fill="var(--fill-0, white)"/>
<path id="Vector_9" d="M31.2128 16.9923C37.1747 16.7413 42.6411 21.3525 44.0944 26.9617C44.7655 29.5517 45.167 31.1886 41.6711 30.2404C41.2782 24.316 36.8025 20.1885 30.948 19.5859C30.8455 19.0112 30.6002 17.1912 31.2115 16.9923H31.2128Z" fill="var(--fill-0, white)"/>
<path id="Vector_10" d="M31.2127 21.5587C35.6225 21.3466 40.4679 25.8681 39.621 30.3484H37.188C36.5144 26.7653 34.4913 24.9077 30.9552 24.1463C30.8368 23.5752 30.6062 21.7588 31.2127 21.5587Z" fill="var(--fill-0, white)"/>
<path id="Vector_11" d="M9.76763 18.513L12.0482 18.5785C12.6058 20.8665 13.6601 23.0661 15.9736 24.0276C17.9588 24.8521 19.0302 24.0336 18.176 27.3026C15.3049 27.6421 12.1202 25.6014 10.6791 23.2006C10.2337 22.4586 8.59136 18.895 9.76763 18.5142V18.513Z" fill="var(--fill-0, white)"/>
<path id="Vector_12" d="M25.0849 30.6904C27.9585 30.3169 27.9488 31.0311 27.1947 33.4392C26.138 36.8185 22.4981 39.9335 18.8046 39.48L18.696 36.9531C20.8533 36.3747 22.9044 35.5926 23.9721 33.4986C24.3016 32.8523 24.6579 30.8323 25.0849 30.6904Z" fill="var(--fill-0, white)"/>
<path id="Vector_13" d="M28.827 9.40328C29.2492 9.33538 30.2912 9.20079 30.5402 9.55364V11.9714C28.2096 12.4928 26.0181 13.572 25.0554 15.8733C24.7296 16.653 24.8248 17.5005 24.2927 18.1602L21.8694 18.1711C21.0336 17.5866 22.4856 14.2995 22.9347 13.5489C24.0511 11.684 26.649 9.75128 28.827 9.40449V9.40328Z" fill="var(--fill-0, white)"/>
</g>
</svg>
