<svg preserveAspectRatio="none" width="100%" height="100%" overflow="visible" style="display: block;" viewBox="0 0 41 41" fill="none" xmlns="http://www.w3.org/2000/svg">
<path id="Vector" d="M20.5 0C9.19493 0 0 9.19493 0 20.5C0 31.8051 9.19493 41 20.5 41C31.8051 41 41 31.8051 41 20.5C41 9.19493 31.8051 0 20.5 0ZM37.468 15.2361C35.3624 13.8524 32.4113 12.7698 28.8963 12.1035C28.23 8.58217 27.141 5.6375 25.7636 3.53174C31.3347 5.26571 35.7405 9.66507 37.468 15.2361ZM20.5 38.2667C18.4436 38.2667 16.2313 34.7624 15.012 29.3407C16.746 29.5372 18.5824 29.6461 20.5 29.6461C22.4197 29.6461 24.2498 29.5371 25.988 29.3407C24.775 34.7689 22.5543 38.2667 20.5 38.2667ZM20.5 26.9124C18.3731 26.9124 16.3573 26.7651 14.4976 26.5024C14.2349 24.6446 14.0876 22.633 14.0876 20.506C14.0876 18.379 14.2349 16.3633 14.4976 14.5096C16.3554 14.247 18.367 14.0996 20.5 14.0996C22.6311 14.0996 24.6427 14.247 26.5024 14.5096C26.7651 16.3674 26.9124 18.379 26.9124 20.506C26.9124 22.633 26.7651 24.6487 26.5024 26.5024C24.6446 26.7651 22.633 26.9124 20.5 26.9124ZM11.6593 25.9878C6.23107 24.7748 2.73333 22.554 2.73333 20.4998C2.73333 18.4434 6.23113 16.2311 11.6593 15.0118C11.4628 16.7458 11.3539 18.5822 11.3539 20.4998C11.3539 22.4195 11.4629 24.2496 11.6593 25.9878ZM20.5 2.73311C22.5564 2.73311 24.7687 6.23736 25.988 11.6591C24.254 11.4626 22.4176 11.3537 20.5 11.3537C18.5803 11.3537 16.7502 11.4626 15.012 11.6591C16.225 6.23085 18.4457 2.73311 20.5 2.73311ZM29.3407 15.0118C34.7689 16.2247 38.2667 18.4455 38.2667 20.4998C38.2667 22.5562 34.7689 24.7685 29.3407 25.9878C29.5372 24.2538 29.6461 22.4174 29.6461 20.4998C29.6461 18.5801 29.5371 16.75 29.3407 15.0118ZM15.2361 3.53179C13.8524 5.63734 12.7698 8.58846 12.1035 12.1035C8.58217 12.7698 5.6375 13.8588 3.53174 15.2362C5.26571 9.66512 9.66507 5.25926 15.2361 3.53179ZM3.53201 25.7636C5.63756 27.1474 8.58868 28.23 12.1037 28.8963C12.77 32.4176 13.859 35.3623 15.2364 37.468C9.66534 35.7341 5.25948 31.3347 3.53201 25.7636ZM25.7639 37.4678C27.1476 35.3622 28.2302 32.4111 28.8965 28.896C32.4178 28.2298 35.3625 27.1407 37.4683 25.7634C35.7343 31.3344 31.3349 35.7403 25.7639 37.4678Z" fill="var(--fill-0, white)"/>
</svg>
