<svg preserveAspectRatio="none" width="100%" height="100%" overflow="visible" style="display: block;" viewBox="0 0 90 90" fill="none" xmlns="http://www.w3.org/2000/svg">
<g id="Group">
<g id="Vector" opacity="0.35">
</g>
<g id="Vector_2" opacity="0.35">
</g>
<g id="Group_2">
<path id="Vector_3" d="M66.3213 24.4715L60.8868 15.3555C58.9582 12.1857 55.4562 10.2151 51.7441 10.2151H25.1178C21.5547 10.2151 18.2398 11.9757 16.2653 14.9049L9.69277 24.4715H1.27181V31.3458H10.132C12.1217 31.3458 13.9815 30.3681 15.1081 28.7259L18.0335 24.4715L21.948 18.7735C22.6584 17.7195 23.8423 17.0893 25.1178 17.0893H51.7441C53.0731 17.0893 54.3219 17.792 54.9979 18.9034L60.6615 28.4013C61.7499 30.2268 63.7205 31.3458 65.8477 31.3458H74.9485V24.4715H66.3213Z" fill="var(--fill-0, #124BDB)"/>
<g id="Group_3">
<path id="Vector_4" d="M19.3118 56.5406H13.9194V43.3993H19.3118V36.5251H11.0666C8.84771 36.5251 7.04513 38.3239 7.04513 40.5465V63.4149H26.1861V57.7933H46.1291V50.919H19.3118V56.5406Z" fill="var(--fill-0, #124BDB)"/>
<path id="Vector_5" d="M52.052 36.525H24.8414V43.3993H52.052H54.7177V36.525H52.052Z" fill="var(--fill-0, #124BDB)"/>
</g>
</g>
<path id="Vector_6" d="M82.3914 50.9143H81.7422V47.9699C81.7422 41.4775 76.4605 36.1996 69.972 36.1996C63.4834 36.1996 58.2017 41.4775 58.2017 47.9699V50.9143H57.5487C54.4018 50.9143 51.8507 53.4654 51.8507 56.6161V73.4466C51.8507 76.5973 54.4018 79.1484 57.5487 79.1484H82.3914C85.5383 79.1484 88.0933 76.5973 88.0933 73.4466V56.6161C88.0933 53.4654 85.5383 50.9143 82.3914 50.9143ZM73.4091 72.2741H66.5348V64.6208H73.4091V72.2741ZM74.868 50.9143H65.076V47.9699C65.076 45.2698 67.2719 43.0739 69.972 43.0739C72.672 43.0739 74.868 45.2698 74.868 47.9699V50.9143Z" fill="var(--fill-0, #124BDB)"/>
</g>
</svg>
