<svg preserveAspectRatio="none" width="100%" height="100%" overflow="visible" style="display: block;" viewBox="0 0 64 71" fill="none" xmlns="http://www.w3.org/2000/svg">
<g id="Group">
<path id="Vector" d="M41.1191 44.696H33.5032V37.9582H13.7064V49.5438H4.76888e-05V70.3006H6.09052V55.6343H13.7064V70.3006H19.7969V49.5438V44.0486H27.4128V44.696V70.3006H33.5032V50.7865H41.1191V70.3006H47.2096V44.696V39.558H54.8255V70.3006H60.916V33.4675H41.1191V44.696Z" fill="var(--fill-0, #124BDB)"/>
<path id="Vector_2" d="M57.8726 2.38444e-05H42.7785V6.0905H53.7689L37.6702 19.0118C36.5838 19.8862 35.0473 19.9085 33.9348 19.0714L30.6719 16.6233C27.3384 14.1231 22.7361 14.1901 19.4806 16.7944L4.76888e-05 32.3796V40.122L0.0260911 40.1555L23.2867 21.5529C24.3694 20.6823 25.906 20.66 27.0147 21.4934L30.2776 23.9452C33.6186 26.4529 38.2246 26.3747 41.4837 23.7629L57.8689 10.6109V21.5083H63.9593V2.38444e-05H57.8689H57.8726Z" fill="var(--fill-0, #124BDB)"/>
</g>
</svg>
