<svg preserveAspectRatio="none" width="100%" height="100%" overflow="visible" style="display: block;" viewBox="0 0 228 33" fill="none" xmlns="http://www.w3.org/2000/svg">
<g id="Group 1077242751">
<g id="Full_Logo" clip-path="url(#clip0_1404_104)">
<path id="Vector" d="M48.8459 0.330748H39.8998V32.2502H48.8459V0.330748Z" fill="var(--fill-0, black)"/>
<path id="Vector_2" d="M73.9236 32.4995C68.4371 32.4995 63.9753 28.0239 63.9753 22.5203L63.9881 9.97935C63.9881 9.00623 63.1979 8.21356 62.2278 8.21356C61.2577 8.21356 60.4675 9.00623 60.4675 9.97935V32.2547H52.2827V9.97613C52.2827 4.47577 56.7445 8.87806e-05 62.2278 8.87806e-05C67.7111 8.87806e-05 72.1729 4.47577 72.1729 9.97613V14.0813L72.1633 14.5195V22.5203C72.1633 23.4902 72.9503 24.2828 73.9203 24.2828C74.6335 24.2828 75.2663 23.8704 75.5265 23.2356L82.4264 6.28989L82.4585 6.21256C84.6235 1.07632 88.2694 8.87806e-05 90.9484 8.87806e-05H91.1251C96.6084 8.87806e-05 101.07 4.47577 101.07 9.97613V32.2547H92.8822V9.97613C92.8822 9.24468 92.4453 8.59701 91.7643 8.33279C91.5587 8.25223 91.3435 8.21034 91.1251 8.21034C90.3959 8.21034 89.7502 8.65179 89.4868 9.3349L82.1597 27.1925C80.8042 30.4921 77.8971 32.4158 74.1613 32.4963H73.9268L73.9236 32.4995Z" fill="var(--fill-0, black)"/>
<path id="Vector_3" d="M0 23.7225H20.7478C25.1068 23.7225 28.5215 20.4487 28.5215 16.2695C28.5215 12.0902 25.0362 8.53286 20.7511 8.53286H10.2984C9.31549 8.53286 8.50922 9.34165 8.50922 10.3276V21.4701H0V9.97643C0 4.47607 4.4618 0.000386998 9.94509 0.000386998H21.1847C30.1597 0.000386998 37.4611 7.29875 37.4611 16.2662C37.4611 25.2337 30.3107 32.2517 21.1847 32.2517H0V23.7193V23.7225Z" fill="var(--fill-0, black)"/>
<path id="Vector_4" d="M119.817 32.2514C110.691 32.2514 103.54 25.2302 103.54 16.2659C103.54 7.29523 110.842 8.87806e-05 119.817 8.87806e-05H127.471C136.446 8.87806e-05 143.748 7.29845 143.748 16.2659C143.748 25.2334 136.597 32.2514 127.471 32.2514H119.817ZM127.035 23.7222C131.394 23.7222 134.808 20.4484 134.808 16.2692C134.808 12.0899 131.323 8.53257 127.038 8.53257H120.257C115.972 8.53257 112.486 12.0029 112.486 16.2692C112.486 20.4484 115.901 23.7222 120.26 23.7222H127.041H127.035Z" fill="var(--fill-0, black)"/>
</g>
<path id="Vector_5" fill-rule="evenodd" clip-rule="evenodd" d="M166.146 -5.35231e-06C157.108 -5.35231e-06 149.781 7.32686 149.781 16.365C149.781 25.4031 157.108 32.73 166.146 32.73H211.635C220.673 32.73 228 25.4031 228 16.365C228 7.32686 220.673 -5.35231e-06 211.635 -5.35231e-06H166.146ZM176.882 22.4408C177.68 22.8396 178.662 23.039 179.83 23.039C181.003 23.039 181.986 22.8396 182.778 22.4408C183.57 22.0364 184.162 21.4696 184.555 20.7404C184.948 20.0113 185.145 19.154 185.145 18.1685V10.5209H181.445V17.9292C181.445 18.6356 181.314 19.154 181.052 19.4844C180.79 19.8148 180.383 19.98 179.83 19.98C179.266 19.98 178.853 19.8148 178.591 19.4844C178.329 19.154 178.198 18.6356 178.198 17.9292V10.5209H174.498V18.1685C174.498 19.154 174.695 20.0113 175.088 20.7404C175.486 21.4696 176.085 22.0364 176.882 22.4408ZM188.168 22.8425V10.5209H191.868V22.8425H188.168ZM195.088 10.5209V22.8425H203.18V19.7834H198.788V10.5209H195.088ZM205.699 22.8425V10.5209H210.356C211.712 10.5209 212.871 10.7886 213.834 11.3241C214.797 11.8539 215.523 12.5859 216.013 13.5201C216.503 14.4486 216.748 15.5082 216.748 16.6988C216.748 17.8893 216.503 18.9489 216.013 19.8774C215.523 20.8002 214.797 21.5266 213.834 22.0563C212.877 22.5804 211.718 22.8425 210.356 22.8425H205.699ZM211.766 19.4929C211.356 19.7606 210.875 19.8945 210.322 19.8945H209.305L209.297 13.4688H210.314C210.866 13.4688 211.348 13.6084 211.758 13.8875C212.174 14.161 212.493 14.5426 212.715 15.0325C212.937 15.5224 213.048 16.0778 213.048 16.6988C213.048 17.3197 212.937 17.8722 212.715 18.3564C212.498 18.8406 212.182 19.2195 211.766 19.4929ZM161.973 10.5209V22.8425H168.364C169.11 22.8425 169.766 22.6801 170.33 22.3554C170.899 22.025 171.338 21.5807 171.645 21.0224C171.953 20.4585 172.107 19.8404 172.107 19.1682C172.107 18.7068 172.024 18.2767 171.859 17.8779C171.7 17.4792 171.457 17.1317 171.133 16.8355C170.814 16.5336 170.426 16.3 169.971 16.1348V16.1092C170.301 15.9668 170.583 15.7759 170.817 15.5367C171.05 15.2917 171.23 15.0126 171.355 14.6993C171.48 14.3803 171.543 14.0385 171.543 13.6739C171.543 13.0986 171.398 12.5716 171.107 12.0931C170.817 11.6089 170.401 11.2272 169.86 10.9481C169.318 10.6633 168.686 10.5209 167.963 10.5209H161.973ZM167.1 20.091C167.35 20.091 167.57 20.0455 167.758 19.9543C167.951 19.8632 168.102 19.7236 168.21 19.5356C168.319 19.3476 168.373 19.1141 168.373 18.8349C168.373 18.5729 168.319 18.3536 168.21 18.177C168.102 17.9947 167.951 17.858 167.758 17.7669C167.564 17.6757 167.342 17.6301 167.091 17.6301H165.673V20.091H167.1ZM166.877 15.3829C167.105 15.3829 167.305 15.3401 167.476 15.2547C167.646 15.1692 167.778 15.0439 167.869 14.8787C167.96 14.7135 168.005 14.5113 168.005 14.272C168.005 14.0385 167.957 13.8448 167.86 13.691C167.769 13.5315 167.641 13.4176 167.476 13.3492C167.31 13.2751 167.12 13.2381 166.903 13.2381H165.673V15.3829H166.877Z" fill="var(--fill-0, #124BDB)"/>
</g>
<defs>
<clipPath id="clip0_1404_104">
<rect width="143.748" height="32.4995" fill="white"/>
</clipPath>
</defs>
</svg>
