<svg preserveAspectRatio="none" width="100%" height="100%" overflow="visible" style="display: block;" viewBox="0 0 59 60" fill="none" xmlns="http://www.w3.org/2000/svg">
<g id="Group">
<path id="Vector" d="M11.1609 30.2391L25.8559 44.9377L29.0943 48.176L32.3326 44.9377L46.9269 30.3398L42.3464 25.7629L32.3326 35.7767V-4.59984e-05H25.8559V35.7767L15.7414 25.6622L11.1609 30.2391Z" fill="var(--fill-0, #124BDB)"/>
<path id="Vector_2" d="M51.6121 0.00287872H38.6587V6.47961H51.6121V52.8362H6.47651V6.47961H19.2285V0.00287872H6.47651C2.89991 0.00287872 -0.000223815 2.90301 -0.000223815 6.47961V52.8326C-0.000223815 56.4092 2.89991 59.3093 6.47651 59.3093H51.6121C55.1887 59.3093 58.0888 56.4092 58.0888 52.8326V6.47961C58.0888 2.90301 55.1887 0.00287872 51.6121 0.00287872Z" fill="var(--fill-0, #124BDB)"/>
</g>
</svg>
