<svg width="34" height="41" viewBox="0 0 34 41" fill="none" xmlns="http://www.w3.org/2000/svg">
<path d="M9.09647 14.8586H24.4371V10.0618C24.4371 7.95379 23.5742 6.03559 22.183 4.64565C20.7918 3.25445 18.8748 2.39151 16.7668 2.39151C14.6588 2.39151 12.7406 3.25445 11.3506 4.64565C9.96066 6.03559 9.09647 7.95379 9.09647 10.0618V14.8586ZM26.8274 14.8623C28.6456 14.921 30.2916 15.6878 31.4967 16.8942C32.753 18.1505 33.5323 19.8826 33.5323 21.7896V33.8595C33.5323 35.7677 32.753 37.4998 31.4967 38.7562C30.2404 40.0125 28.507 40.7918 26.6001 40.7918H6.931C5.02404 40.7918 3.29067 40.0125 2.03559 38.7562C0.779269 37.4998 0 35.7677 0 33.8595V21.7896C0 19.8826 0.779269 18.1492 2.03559 16.8942C3.24071 15.6878 4.88667 14.921 6.70496 14.8623V10.0618C6.70496 7.29316 7.8364 4.77802 9.65969 2.95473C11.4817 1.13144 13.9981 0 16.7655 0C19.5329 0 22.0493 1.13144 23.8726 2.95473C25.6947 4.77677 26.8274 7.29316 26.8274 10.0618V14.8623ZM26.6013 17.2488H25.6322H7.90134H6.93225C5.68467 17.2488 4.54949 17.7596 3.72526 18.5838C2.90228 19.4068 2.39026 20.5432 2.39026 21.7896V33.8595C2.39026 35.1071 2.90103 36.2423 3.72526 37.0665C4.54824 37.8895 5.68467 38.4015 6.93225 38.4015H26.6013C27.8489 38.4015 28.9841 37.8907 29.8083 37.0665C30.6313 36.2435 31.1433 35.1071 31.1433 33.8595V21.7896C31.1433 20.542 30.6325 19.4068 29.8083 18.5838C28.9853 17.7596 27.8489 17.2488 26.6013 17.2488Z" fill="white"/>
</svg>
