<svg width="64" height="71" viewBox="0 0 64 71" fill="none" xmlns="http://www.w3.org/2000/svg">
<path d="M41.1191 44.696H33.5032V37.9582H13.7064V49.5439H0V70.3006H6.09048V55.6343H13.7064V70.3006H19.7968V49.5439V44.0487H27.4127V44.696V70.3006H33.5032V50.7865H41.1191V70.3006H47.2096V44.696V39.558H54.8254V70.3006H60.9159V33.4675H41.1191V44.696Z" fill="#124BDB"/>
<path d="M57.8725 0H42.7784V6.09048H53.7688L37.6702 19.0118C36.5838 19.8861 35.0472 19.9085 33.9348 19.0713L30.6719 16.6232C27.3383 14.1231 22.736 14.19 19.4806 16.7944L0 32.3796V40.122L0.0260435 40.1555L23.2867 21.5529C24.3693 20.6823 25.9059 20.66 27.0146 21.4934L30.2775 23.9452C33.6185 26.4528 38.2245 26.3747 41.4837 23.7629L57.8688 10.6109V21.5083H63.9593V0H57.8688H57.8725Z" fill="#124BDB"/>
</svg>
