<svg width="37" height="37" viewBox="0 0 37 37" fill="none" xmlns="http://www.w3.org/2000/svg">
<path d="M34.5062 3.88493L18.1666 20.2245L11.3819 13.4445C10.813 12.8756 9.88808 12.8756 9.31922 13.4445C8.75036 14.0134 8.75036 14.9383 9.31922 15.5072L17.1352 23.3232C17.422 23.6099 17.792 23.7487 18.1666 23.7487C18.5412 23.7487 18.9112 23.6053 19.1979 23.3232L36.5735 5.95224C37.1423 5.38338 37.1423 4.45841 36.5735 3.88955C36 3.31607 35.0797 3.31607 34.5062 3.88493Z" fill="white"/>
<path d="M18.1803 2.91828C21.8571 2.91828 25.2286 4.23174 27.8694 6.40542L29.9413 4.33349C26.7733 1.63257 22.6757 0 18.1803 0C8.15824 0 0 8.15824 0 18.1803C0 28.2024 8.15824 36.3606 18.1803 36.3606C28.2024 36.3606 36.3467 28.2024 36.3467 18.1803C36.3467 15.8448 35.9074 13.6156 35.0934 11.5575L32.8041 13.8468C33.2111 15.2204 33.4331 16.6772 33.4331 18.1803C33.4331 26.5975 26.5883 33.4423 18.1849 33.4423C9.76769 33.4423 2.92291 26.5975 2.92291 18.1803C2.91828 9.76307 9.76307 2.91828 18.1803 2.91828Z" fill="white"/>
</svg>
