<svg width="59" height="60" viewBox="0 0 59 60" fill="none" xmlns="http://www.w3.org/2000/svg">
<path d="M11.1611 30.2391L25.8561 44.9377L29.0945 48.1761L32.3328 44.9377L46.9271 30.3399L42.3466 25.763L32.3328 35.7767V0H25.8561V35.7767L15.7416 25.6622L11.1611 30.2391Z" fill="#124BDB"/>
<path d="M51.6123 0.00292969H38.6589V6.47966H51.6123V52.8362H6.47673V6.47966H19.2287V0.00292969H6.47673C2.90014 0.00292969 0 2.90307 0 6.47966V52.8326C0 56.4092 2.90014 59.3094 6.47673 59.3094H51.6123C55.1889 59.3094 58.0891 56.4092 58.0891 52.8326V6.47966C58.0891 2.90307 55.1889 0.00292969 51.6123 0.00292969Z" fill="#124BDB"/>
</svg>
