<svg preserveAspectRatio="none" width="100%" height="100%" overflow="visible" style="display: block;" viewBox="0 0 37 37" fill="none" xmlns="http://www.w3.org/2000/svg">
<g id="Group 1077242754">
<path id="Vector" d="M34.506 3.88487L18.1664 20.2245L11.3818 13.4444C10.8129 12.8756 9.88794 12.8756 9.31909 13.4444C8.75023 14.0133 8.75023 14.9383 9.31909 15.5071L17.1351 23.3231C17.4218 23.6099 17.7918 23.7486 18.1664 23.7486C18.541 23.7486 18.911 23.6052 19.1978 23.3231L36.5734 5.95218C37.1422 5.38332 37.1422 4.45835 36.5734 3.8895C35.9999 3.31601 35.0795 3.31601 34.506 3.88487Z" fill="var(--fill-0, white)"/>
<path id="Vector_2" d="M18.1803 2.91827C21.8571 2.91827 25.2286 4.23173 27.8694 6.40542L29.9413 4.33348C26.7733 1.63256 22.6757 -8.70228e-06 18.1803 -8.70228e-06C8.15824 -8.70228e-06 0 8.15823 0 18.1803C0 28.2024 8.15824 36.3606 18.1803 36.3606C28.2024 36.3606 36.3467 28.2024 36.3467 18.1803C36.3467 15.8447 35.9074 13.6156 35.0934 11.5575L32.8041 13.8468C33.2111 15.2204 33.4331 16.6772 33.4331 18.1803C33.4331 26.5975 26.5883 33.4423 18.1849 33.4423C9.76769 33.4423 2.92291 26.5975 2.92291 18.1803C2.91828 9.76306 9.76307 2.91827 18.1803 2.91827Z" fill="var(--fill-0, white)"/>
</g>
</svg>
