<svg width="41" height="38" viewBox="0 0 41 38" fill="none" xmlns="http://www.w3.org/2000/svg">
<path d="M9.77919 37.7193C10.2694 38.0188 10.8555 38.0797 11.4016 37.8968C11.9478 37.706 12.3767 37.2925 12.5819 36.7571L16.0052 27.6789C16.586 26.131 16.4635 24.4028 15.6562 22.9291C15.2273 22.134 15.0009 21.2672 15.0009 20.3581C15.0009 18.9056 15.5737 17.5353 16.61 16.5096C17.6463 15.4838 19.045 14.9139 20.5049 14.9298C21.9782 14.9219 23.3501 15.4785 24.3865 16.5096C25.4228 17.5353 25.9956 18.9056 25.9956 20.3581C25.9956 21.2672 25.7772 22.1286 25.3403 22.9291C24.5357 24.4028 24.4132 26.131 24.9913 27.6789L28.4146 36.7571C28.6198 37.2925 29.0487 37.714 29.5949 37.8968C29.8 37.9658 30.0105 37.9976 30.2236 37.9976C30.5726 37.9976 30.9136 37.9021 31.2199 37.7193C37.345 33.9793 41 27.4937 41 20.3555C41 14.914 38.866 9.79806 34.9926 5.9502C31.1243 2.11754 25.9963 0 20.5402 0H20.5002C15.0574 0 9.87556 2.10454 6.0074 5.9502C2.13379 9.79874 0 14.9142 0 20.3555C0 27.4937 3.65514 33.9794 9.78008 37.7193L9.77919 37.7193ZM7.9303 7.87159C11.2791 4.54784 15.7257 2.71364 20.4595 2.71364H20.5394C25.2735 2.71364 29.7199 4.54518 33.0685 7.87159C36.4253 11.2033 38.2716 15.6403 38.2716 20.3555C38.2716 26.2107 35.4263 31.5649 30.6199 34.87L27.5509 26.7275C27.2445 25.9191 27.3191 25.0047 27.7427 24.2228C28.3848 23.0433 28.7258 21.7048 28.7258 20.361C28.7258 18.1769 27.8652 16.1281 26.3121 14.5855C24.7642 13.0588 22.7182 12.2186 20.5547 12.2186H20.4535C18.2769 12.2186 16.2255 13.0588 14.6831 14.5855C13.1272 16.1254 12.2694 18.1743 12.2694 20.361C12.2694 21.7101 12.6104 23.0407 13.2525 24.2228C13.676 25.002 13.7506 25.9191 13.4443 26.7275L10.3752 34.87C5.5665 31.5648 2.72358 26.2107 2.72358 20.3555C2.72358 15.6402 4.57246 11.2032 7.92661 7.87159H7.9303Z" fill="white"/>
</svg>
