<svg width="90" height="90" viewBox="0 0 90 90" fill="none" xmlns="http://www.w3.org/2000/svg">
<path d="M66.3215 24.4715L60.887 15.3555C58.9584 12.1857 55.4563 10.2151 51.7442 10.2151H25.118C21.5548 10.2151 18.2399 11.9757 16.2655 14.9049L9.69293 24.4715H1.27197V31.3458H10.1321C12.1218 31.3458 13.9817 30.3681 15.1083 28.7259L18.0337 24.4715L21.9482 18.7735C22.6585 17.7195 23.8424 17.0893 25.118 17.0893H51.7442C53.0733 17.0893 54.3221 17.792 54.998 18.9034L60.6617 28.4013C61.7501 30.2268 63.7207 31.3458 65.8479 31.3458H74.9486V24.4715H66.3215Z" fill="#124BDB"/>
<path d="M19.3121 56.5407H13.9197V43.3994H19.3121V36.5251H11.0668C8.84799 36.5251 7.04541 38.3239 7.04541 40.5466V63.4149H26.1864V57.7933H46.1293V50.9191H19.3121V56.5407Z" fill="#124BDB"/>
<path d="M52.0524 36.5251H24.8418V43.3994H52.0524H54.718V36.5251H52.0524Z" fill="#124BDB"/>
<path d="M82.3913 50.9143H81.7421V47.9698C81.7421 41.4775 76.4604 36.1996 69.9719 36.1996C63.4833 36.1996 58.2016 41.4775 58.2016 47.9698V50.9143H57.5486C54.4017 50.9143 51.8506 53.4654 51.8506 56.6161V73.4466C51.8506 76.5973 54.4017 79.1484 57.5486 79.1484H82.3913C85.5382 79.1484 88.0932 76.5973 88.0932 73.4466V56.6161C88.0932 53.4654 85.5382 50.9143 82.3913 50.9143ZM73.409 72.2741H66.5347V64.6208H73.409V72.2741ZM74.8679 50.9143H65.0759V47.9698C65.0759 45.2698 67.2718 43.0738 69.9719 43.0738C72.6719 43.0738 74.8679 45.2698 74.8679 47.9698V50.9143Z" fill="#124BDB"/>
</svg>
