<svg width="162" height="30" viewBox="0 0 162 30" fill="none" xmlns="http://www.w3.org/2000/svg">
<g clip-path="url(#clip0_1374_339)">
<path d="M32.5408 8.9686C26.6836 8.9686 22.1071 13.4317 22.1071 19.4066C22.1071 25.3814 26.568 29.8064 32.5408 29.8064C38.5136 29.8064 43.0521 25.305 43.0521 19.3684C43.0521 13.4699 38.5911 8.9686 32.5408 8.9686ZM32.5803 25.5004C29.2449 25.5004 26.8007 22.9001 26.8007 19.408C26.8007 15.8763 29.2053 13.2775 32.5408 13.2775C35.9158 13.2775 38.3584 15.916 38.3584 19.408C38.3584 22.9001 35.9158 25.5004 32.5803 25.5004ZM44.3312 13.5096H47.2408V29.42H51.8949V9.35644H44.3312V13.5096ZM10.3942 13.276C12.8383 13.276 14.7776 14.7892 15.5137 17.0399H20.4401C19.5473 12.2285 15.5913 8.9686 10.4337 8.9686C4.57655 8.9686 0 13.4317 0 19.408C0 25.3844 4.46093 29.8078 10.4337 29.8078C15.4757 29.8078 19.5093 26.5479 20.402 21.6969H15.5137C14.8156 23.9476 12.8764 25.5004 10.4323 25.5004C7.05729 25.5004 4.69217 22.9001 4.69217 19.408C4.69364 15.8763 7.0207 13.276 10.3942 13.276ZM132.762 17.4674L129.349 16.9635C127.72 16.7313 126.557 16.1878 126.557 14.9067C126.557 13.5096 128.07 12.8118 130.125 12.8118C132.375 12.8118 133.81 13.7814 134.121 15.3724H138.62C138.115 11.3368 135.012 8.97007 130.242 8.97007C125.316 8.97007 122.058 11.4925 122.058 15.0624C122.058 18.4766 124.192 20.457 128.496 21.077L131.909 21.5809C133.578 21.813 134.508 22.4741 134.508 23.7155C134.508 25.3065 132.88 25.9661 130.63 25.9661C127.876 25.9661 126.324 24.8408 126.092 23.1337H121.515C121.942 27.0533 125.006 29.8078 130.591 29.8078C135.672 29.8078 139.046 27.4793 139.046 23.4819C139.046 19.912 136.603 18.0491 132.762 17.4674ZM49.5678 1.09126C47.8613 1.09126 46.5807 2.33265 46.5807 4.03975C46.5807 5.74685 47.8599 6.98824 49.5678 6.98824C51.2744 6.98824 52.555 5.74685 52.555 4.03975C52.555 2.33265 51.2744 1.09126 49.5678 1.09126ZM117.869 16.226C117.869 11.8804 115.232 8.97007 109.647 8.97007C104.372 8.97007 101.425 11.6482 100.842 15.7617H105.458C105.691 14.1707 106.932 12.8514 109.569 12.8514C111.936 12.8514 113.1 13.8989 113.1 15.18C113.1 16.8489 110.966 17.2749 108.328 17.5467C104.76 17.9345 100.339 19.1759 100.339 23.833C100.339 27.4426 103.016 29.7696 107.282 29.7696C110.617 29.7696 112.712 28.3725 113.76 26.1601C113.915 28.1389 115.389 29.42 117.445 29.42H120.16V25.2683H117.871V16.226H117.869ZM113.293 21.2709C113.293 23.949 110.966 25.9279 108.134 25.9279C106.388 25.9279 104.914 25.1904 104.914 23.6391C104.914 21.6602 107.28 21.1166 109.452 20.8845C111.547 20.6906 112.71 20.2249 113.293 19.3317V21.2709ZM88.5864 8.9686C85.9871 8.9686 83.8152 10.0557 82.2638 11.8789V0.897339H77.6097V29.42H82.1862V26.7815C83.7376 28.6825 85.949 29.8078 88.5864 29.8078C94.1713 29.8078 98.3995 25.3844 98.3995 19.408C98.3995 13.4317 94.0937 8.9686 88.5864 8.9686ZM87.8882 25.5004C84.5528 25.5004 82.1087 22.9001 82.1087 19.408C82.1087 15.916 84.5908 13.2775 87.9263 13.2775C91.3013 13.2775 93.6664 15.8778 93.6664 19.408C93.6664 22.9001 91.2237 25.5004 87.8882 25.5004ZM66.4778 8.9686C63.4526 8.9686 61.4739 10.21 60.3104 11.9568V9.35644H55.6943V29.4185H60.3484V18.5148C60.3484 15.4488 62.2877 13.276 65.1577 13.276C67.8345 13.276 69.5015 15.177 69.5015 17.9331V29.42H74.1557V17.5849C74.1571 12.5385 71.5593 8.9686 66.4778 8.9686ZM161.232 18.7484C161.232 13.0057 157.043 8.97007 151.418 8.97007C145.446 8.97007 141.062 13.4714 141.062 19.408C141.062 25.6561 145.756 29.8078 151.496 29.8078C156.345 29.8078 160.146 26.9357 161.115 22.8619H156.266C155.568 24.6469 153.861 25.6561 151.572 25.6561C148.585 25.6561 146.336 23.7933 145.832 20.5334H161.23V18.7484H161.232ZM146.104 17.1956C146.842 14.4013 148.936 13.0439 151.341 13.0439C153.978 13.0439 155.995 14.5571 156.46 17.1956H146.104Z" fill="white"/>
</g>
<defs>
<clipPath id="clip0_1374_339">
<rect width="161.232" height="28.9105" fill="white" transform="translate(0 0.897339)"/>
</clipPath>
</defs>
</svg>
