<svg width="160" height="23" viewBox="0 0 160 23" fill="none" xmlns="http://www.w3.org/2000/svg">
<g clip-path="url(#clip0_8368_2118)">
<path d="M34.2779 0.232422H28V22.632H34.2779V0.232422Z" fill="#E80303"/>
<path d="M51.876 22.8066C48.0258 22.8066 44.8947 19.6658 44.8947 15.8036L44.9037 7.00297C44.9037 6.32009 44.3492 5.76383 43.6684 5.76383C42.9877 5.76383 42.4331 6.32009 42.4331 7.00297V22.6347H36.6895V7.00071C36.6895 3.14082 39.8205 0 43.6684 0C47.5164 0 50.6474 3.14082 50.6474 7.00071V9.8815L50.6407 10.189V15.8036C50.6407 16.4842 51.193 17.0405 51.8737 17.0405C52.3742 17.0405 52.8182 16.7511 53.0008 16.3056L57.8428 4.41389L57.8654 4.35962C59.3847 0.755245 61.9432 0 63.8232 0H63.9472C67.7951 0 70.9262 3.14082 70.9262 7.00071V22.6347H65.1802V7.00071C65.1802 6.48742 64.8737 6.03291 64.3958 5.84749C64.2515 5.79096 64.1005 5.76157 63.9472 5.76157C63.4355 5.76157 62.9824 6.07135 62.7976 6.55073L57.6557 19.0824C56.7045 21.3978 54.6644 22.7478 52.0428 22.8043H51.8782L51.876 22.8066Z" fill="#E80303"/>
<path d="M0 16.647H14.5599C17.6188 16.647 20.015 14.3497 20.015 11.4169C20.015 8.48407 17.5692 5.98769 14.5621 5.98769H7.22695C6.53717 5.98769 5.97137 6.55525 5.97137 7.24718V15.0665H0V7.00071C0 3.14082 3.13108 0 6.97899 0H14.8664C21.1646 0 26.2884 5.12165 26.2884 11.4146C26.2884 17.7076 21.2706 22.6325 14.8664 22.6325H0V16.6448V16.647Z" fill="#E80303"/>
<path d="M84.0822 22.6325C77.678 22.6325 72.6602 17.7053 72.6602 11.4146C72.6602 5.11938 77.7839 0 84.0822 0H89.4539C95.7521 0 100.876 5.12165 100.876 11.4146C100.876 17.7076 95.8581 22.6325 89.4539 22.6325H84.0822ZM89.1474 16.647C92.2063 16.647 94.6025 14.3497 94.6025 11.4169C94.6025 8.48407 92.1567 5.98769 89.1496 5.98769H84.391C81.3839 5.98769 78.9381 8.42302 78.9381 11.4169C78.9381 14.3497 81.3343 16.647 84.3933 16.647H89.1519H89.1474Z" fill="#E80303"/>
</g>
<path fill-rule="evenodd" clip-rule="evenodd" d="M116.594 0C110.251 0 105.109 5.14164 105.109 11.4842C105.109 17.8267 110.251 22.9684 116.594 22.9684H148.516C154.858 22.9684 160 17.8267 160 11.4842C160 5.14164 154.858 0 148.516 0H116.594ZM124.128 15.7479C124.687 16.0278 125.377 16.1677 126.196 16.1677C127.02 16.1677 127.71 16.0278 128.265 15.7479C128.821 15.4641 129.237 15.0663 129.512 14.5547C129.788 14.043 129.926 13.4413 129.926 12.7498V7.38306H127.33V12.5819C127.33 13.0776 127.238 13.4413 127.054 13.6732C126.87 13.9051 126.584 14.021 126.196 14.021C125.801 14.021 125.511 13.9051 125.327 13.6732C125.143 13.4413 125.051 13.0776 125.051 12.5819V7.38306H122.455V12.7498C122.455 13.4413 122.593 14.043 122.868 14.5547C123.148 15.0663 123.568 15.4641 124.128 15.7479ZM132.048 16.0298V7.38306H134.644V16.0298H132.048ZM136.904 7.38306V16.0298H142.582V13.8831H139.5V7.38306H136.904ZM144.35 16.0298V7.38306H147.618C148.57 7.38306 149.383 7.57094 150.059 7.94671C150.735 8.31848 151.244 8.83217 151.588 9.48777C151.932 10.1394 152.104 10.8829 152.104 11.7184C152.104 12.5539 151.932 13.2974 151.588 13.949C151.244 14.5966 150.735 15.1063 150.059 15.4781C149.387 15.8459 148.574 16.0298 147.618 16.0298H144.35ZM148.608 13.6792C148.32 13.8671 147.982 13.961 147.594 13.961H146.881L146.875 9.45179H147.588C147.976 9.45179 148.314 9.54973 148.602 9.74561C148.894 9.93749 149.118 10.2053 149.273 10.5491C149.429 10.8929 149.507 11.2827 149.507 11.7184C149.507 12.1541 149.429 12.5419 149.273 12.8817C149.122 13.2215 148.9 13.4873 148.608 13.6792ZM113.665 7.38306V16.0298H118.15C118.674 16.0298 119.134 15.9158 119.529 15.688C119.929 15.4561 120.237 15.1443 120.453 14.7525C120.669 14.3568 120.777 13.923 120.777 13.4513C120.777 13.1275 120.719 12.8257 120.603 12.5459C120.491 12.2661 120.321 12.0222 120.093 11.8143C119.869 11.6025 119.597 11.4386 119.278 11.3226V11.3047C119.51 11.2047 119.707 11.0708 119.871 10.9029C120.035 10.731 120.161 10.5351 120.249 10.3153C120.337 10.0914 120.381 9.85154 120.381 9.5957C120.381 9.19195 120.279 8.82217 120.075 8.48638C119.871 8.14659 119.579 7.87875 119.2 7.68287C118.82 7.483 118.376 7.38306 117.869 7.38306H113.665ZM117.263 14.0989C117.439 14.0989 117.593 14.067 117.725 14.003C117.861 13.939 117.966 13.8411 118.042 13.7092C118.118 13.5773 118.156 13.4134 118.156 13.2175C118.156 13.0336 118.118 12.8797 118.042 12.7558C117.966 12.6278 117.861 12.5319 117.725 12.4679C117.589 12.404 117.433 12.372 117.257 12.372H116.261V14.0989H117.263ZM117.107 10.795C117.267 10.795 117.407 10.765 117.527 10.705C117.647 10.6451 117.739 10.5571 117.803 10.4412C117.867 10.3253 117.898 10.1833 117.898 10.0154C117.898 9.85154 117.865 9.71563 117.797 9.60769C117.733 9.49576 117.643 9.41581 117.527 9.36784C117.411 9.31587 117.277 9.28989 117.125 9.28989H116.261V10.795H117.107Z" fill="#E80303"/>
<defs>
<clipPath id="clip0_8368_2118">
<rect width="100.875" height="22.8066" fill="white"/>
</clipPath>
</defs>
</svg>
