<svg width="172" height="41" viewBox="0 0 172 41" fill="none" xmlns="http://www.w3.org/2000/svg">
<g clip-path="url(#clip0_1374_376)">
<path d="M25.3 31.1856L33.298 35.7576L41.2147 31.1704L41.2185 21.9074L33.342 17.3583C33.153 17.3194 32.1794 17.9308 31.9251 18.0749C26.317 21.2426 20.7065 24.963 15.0346 27.9249C13.7505 28.5958 12.726 28.8039 11.3403 28.1803C8.47852 26.3544 5.20619 24.8685 2.39754 22.9938C1.27059 22.2413 0.689285 21.3402 0.567863 19.9572C0.749996 16.5722 0.335643 12.9509 0.567863 9.59413C0.663483 8.21346 1.25997 7.23303 2.39754 6.48056C5.36252 4.51818 8.86783 2.86686 11.9489 1.06687C12.8869 0.790125 13.7262 0.883898 14.6073 1.29254C17.4425 3.18782 20.9296 4.62949 23.7003 6.5568C25.892 8.0808 25.3258 10.1659 25.3638 12.5164L20.9 15.0414V10.1293L12.9727 5.52682L5.06124 10.1072V19.3671L12.915 23.9391L13.1389 23.8942L31.935 12.9845C32.9451 12.6033 34.0106 12.6696 34.9842 13.1247C38.0258 14.5466 41.0599 16.9237 44.1053 18.4378C45.1252 19.1224 45.6261 20.2645 45.7081 21.4736C45.9312 24.7595 45.532 28.2954 45.7081 31.608C45.6246 32.8392 45.1085 33.9927 44.0598 34.6743C41.0796 36.2425 38.1981 38.2819 35.2119 39.8044C33.9445 40.4509 33.0028 40.6171 31.6679 39.985C28.8342 38.0867 25.3456 36.6473 22.5749 34.72C20.3665 33.1846 20.9554 31.1269 20.9121 28.7605L25.2993 26.2355V31.1856H25.3Z" fill="white"/>
<path d="M129.303 14.2037V12.7948L129.417 12.6804H133.741L133.859 12.9434C133.656 18.4273 134.115 24.0895 133.859 29.5527C133.749 31.9009 132.966 33.7863 130.742 34.801C130.323 34.9923 129.158 35.3751 128.735 35.3751H119.67V31.8719H127.522C128.369 31.8719 129.38 30.5057 129.38 29.7014V27.3022C127.081 29.9072 122.348 29.5306 119.897 27.3411C116.475 24.2847 116.547 16.9986 120.09 14.0535C122.551 12.0072 127.015 11.7564 129.304 14.2037H129.303ZM125.419 16.2827C120.078 16.6166 120.646 26.5169 126.726 25.134C130.986 24.1657 130.603 15.9587 125.419 16.2827Z" fill="white"/>
<path d="M61.4088 27.4546V35.3743H57.0088V12.6804H61.4088V14.4316C63.2893 12.2092 66.737 11.9599 69.2732 13.1241C74.3585 15.4578 74.7311 23.9683 70.6642 27.4173C68.254 29.4612 63.7022 29.9011 61.4088 27.4546ZM64.883 16.2827C59.6975 16.5426 59.9199 25.7255 65.5417 25.2445C70.4024 24.829 70.2104 16.0158 64.883 16.2827Z" fill="white"/>
<path d="M82.71 12.4746C88.9185 12.0011 93.3139 17.3073 91.5799 23.3591C89.3753 31.0523 77.4942 31.0432 75.3298 23.2661C73.8424 17.9226 77.1648 12.8977 82.7108 12.4753L82.71 12.4746ZM83.2412 16.2827C78.2788 16.5312 78.1491 24.8221 83.0682 25.2445C88.8851 25.7446 88.9382 15.9975 83.2412 16.2827Z" fill="white"/>
<path d="M144.231 12.4745C150.475 11.998 154.824 17.3378 153.066 23.4002C150.862 31.0027 139.147 31.0294 136.868 23.4002C135.264 18.0285 138.652 12.9007 144.231 12.4745ZM144.762 16.2826C139.503 16.5457 139.693 25.6577 145.345 25.2445C150.399 24.8755 150.187 16.0112 144.762 16.2826Z" fill="white"/>
<path d="M171.177 28.8255H166.702V19.1158C166.702 18.6057 166.099 17.5666 165.717 17.2113C163.816 15.4472 160.33 16.9498 160.33 19.5732V28.8262H155.854V12.7956L155.968 12.6812H160.33V14.8899L160.898 14.1275C163.742 11.3776 168.891 12.0286 170.584 15.7521C170.783 16.1897 171.178 17.3775 171.178 17.8212V28.8255H171.177Z" fill="white"/>
<path d="M105.635 12.6805L109.01 23.0382L112.424 12.6805H116.862L108.821 35.3744H104.572L106.91 28.6524L101.116 12.836L101.197 12.6805H105.635Z" fill="white"/>
<path d="M99.0348 5.67401H94.6348V28.8246H99.0348V5.67401Z" fill="white"/>
</g>
<defs>
<clipPath id="clip0_1374_376">
<rect width="170.683" height="39.4739" fill="white" transform="translate(0.494141 0.908875)"/>
</clipPath>
</defs>
</svg>
