<svg preserveAspectRatio="none" width="100%" height="100%" overflow="visible" style="display: block;" viewBox="0 0 162 29" fill="none" xmlns="http://www.w3.org/2000/svg">
<g id="Coinbase_Wordmark_White 1" clip-path="url(#clip0_1404_63)">
<path id="Vector" d="M32.5408 8.07126C26.6836 8.07126 22.1071 12.5344 22.1071 18.5092C22.1071 24.4841 26.568 28.909 32.5408 28.909C38.5136 28.909 43.0521 24.4077 43.0521 18.471C43.0521 12.5726 38.5911 8.07126 32.5408 8.07126ZM32.5803 24.6031C29.2449 24.6031 26.8007 22.0028 26.8007 18.5107C26.8007 14.979 29.2053 12.3801 32.5408 12.3801C35.9158 12.3801 38.3584 15.0187 38.3584 18.5107C38.3584 22.0028 35.9158 24.6031 32.5803 24.6031ZM44.3312 12.6123H47.2408V28.5227H51.8949V8.4591H44.3312V12.6123ZM10.3942 12.3787C12.8383 12.3787 14.7776 13.8918 15.5137 16.1425H20.4401C19.5473 11.3312 15.5913 8.07126 10.4337 8.07126C4.57655 8.07126 0 12.5344 0 18.5107C0 24.487 4.46093 28.9105 10.4337 28.9105C15.4757 28.9105 19.5093 25.6506 20.402 20.7996H15.5137C14.8156 23.0502 12.8764 24.6031 10.4323 24.6031C7.05729 24.6031 4.69217 22.0028 4.69217 18.5107C4.69364 14.979 7.0207 12.3787 10.3942 12.3787ZM132.762 16.57L129.349 16.0661C127.72 15.834 126.557 15.2904 126.557 14.0094C126.557 12.6123 128.07 11.9144 130.125 11.9144C132.375 11.9144 133.81 12.884 134.121 14.4751H138.62C138.115 10.4395 135.012 8.07273 130.242 8.07273C125.316 8.07273 122.058 10.5952 122.058 14.1651C122.058 17.5793 124.192 19.5597 128.496 20.1796L131.909 20.6835C133.578 20.9156 134.508 21.5767 134.508 22.8181C134.508 24.4092 132.88 25.0688 130.63 25.0688C127.876 25.0688 126.324 23.9435 126.092 22.2364H121.515C121.942 26.1559 125.006 28.9105 130.591 28.9105C135.672 28.9105 139.046 26.582 139.046 22.5845C139.046 19.0146 136.603 17.1518 132.762 16.57ZM49.5678 0.193922C47.8613 0.193922 46.5807 1.43531 46.5807 3.14241C46.5807 4.84951 47.8599 6.09091 49.5678 6.09091C51.2744 6.09091 52.555 4.84951 52.555 3.14241C52.555 1.43531 51.2744 0.193922 49.5678 0.193922ZM117.869 15.3286C117.869 10.983 115.232 8.07273 109.647 8.07273C104.372 8.07273 101.425 10.7509 100.842 14.8644H105.458C105.691 13.2734 106.932 11.9541 109.569 11.9541C111.936 11.9541 113.1 13.0016 113.1 14.2826C113.1 15.9515 110.966 16.3776 108.328 16.6494C104.76 17.0372 100.339 18.2786 100.339 22.9357C100.339 26.5452 103.016 28.8723 107.282 28.8723C110.617 28.8723 112.712 27.4752 113.76 25.2627C113.915 27.2416 115.389 28.5227 117.445 28.5227H120.16V24.371H117.871V15.3286H117.869ZM113.293 20.3735C113.293 23.0517 110.966 25.0306 108.134 25.0306C106.388 25.0306 104.914 24.2931 104.914 22.7417C104.914 20.7628 107.28 20.2193 109.452 19.9872C111.547 19.7932 112.71 19.3275 113.293 18.4343V20.3735ZM88.5864 8.07126C85.9871 8.07126 83.8152 9.15839 82.2638 10.9816V0H77.6097V28.5227H82.1862V25.8841C83.7376 27.7852 85.949 28.9105 88.5864 28.9105C94.1713 28.9105 98.3995 24.487 98.3995 18.5107C98.3995 12.5344 94.0937 8.07126 88.5864 8.07126ZM87.8882 24.6031C84.5528 24.6031 82.1086 22.0028 82.1086 18.5107C82.1086 15.0187 84.5908 12.3801 87.9263 12.3801C91.3013 12.3801 93.6664 14.9805 93.6664 18.5107C93.6664 22.0028 91.2237 24.6031 87.8882 24.6031ZM66.4778 8.07126C63.4526 8.07126 61.4739 9.31265 60.3104 11.0594V8.4591H55.6943V28.5212H60.3484V17.6175C60.3484 14.5515 62.2877 12.3787 65.1577 12.3787C67.8345 12.3787 69.5015 14.2797 69.5015 17.0357V28.5227H74.1557V16.6876C74.1571 11.6412 71.5593 8.07126 66.4778 8.07126ZM161.232 17.8511C161.232 12.1084 157.043 8.07273 151.418 8.07273C145.446 8.07273 141.062 12.5741 141.062 18.5107C141.062 24.7588 145.756 28.9105 151.496 28.9105C156.345 28.9105 160.146 26.0384 161.115 21.9646H156.266C155.568 23.7495 153.861 24.7588 151.572 24.7588C148.585 24.7588 146.336 22.896 145.832 19.636H161.23V17.8511H161.232ZM146.104 16.2982C146.842 13.504 148.936 12.1466 151.341 12.1466C153.978 12.1466 155.995 13.6597 156.46 16.2982H146.104Z" fill="var(--fill-0, white)"/>
</g>
<defs>
<clipPath id="clip0_1404_63">
<rect width="161.232" height="28.9105" fill="white"/>
</clipPath>
</defs>
</svg>
