<svg preserveAspectRatio="none" width="100%" height="100%" overflow="visible" style="display: block;" viewBox="0 0 133 43" fill="none" xmlns="http://www.w3.org/2000/svg">
<g id="Group">
<path id="Vector" d="M19.1298 0.0998373C35.621 -1.50523 47.4426 16.5858 39.4474 31.2763C32.0425 44.8803 12.897 46.1215 3.93551 33.4254C-5.54029 20.0017 3.10244 1.659 19.1298 0.0998373ZM29.9463 9.02974C29.3241 9.08755 26.8113 11.6465 26.8299 12.3419C26.8417 12.7534 29.4134 15.467 30.1335 15.4483C30.9801 15.4024 33.3444 13.039 33.2449 12.0954C33.1892 11.5649 30.5855 8.97023 29.9463 9.02974ZM9.31508 9.59934V15.0692L9.92049 15.4466C10.9526 14.6866 15.6846 13.0662 14.0943 11.4918C13.6255 11.0276 10.2578 9.08075 9.71981 9.24738L9.31508 9.59934ZM18.7706 14.3652C21.2834 17.0177 25.7725 13.4845 23.3795 10.3407C20.9866 7.19683 15.9038 11.3387 18.7706 14.3652ZM18.4401 18.5513C18.2125 19.3709 18.4401 22.6252 18.4401 23.7729C18.4401 23.9242 18.8415 24.1419 19.059 24.1589C19.7724 24.2184 23.533 22.0046 23.8045 21.0338C23.7775 20.6903 19.9191 18.1586 19.4317 18.0243C19.0438 17.9171 18.5278 18.2351 18.4401 18.5513ZM10.4854 18.2385C9.77547 18.3694 9.28979 18.5887 9.12283 19.3522C8.95588 20.1156 8.92553 23.1489 9.43313 23.6556C9.83112 24.0518 13.9341 24.0399 14.3962 23.6726C14.892 23.2798 14.897 19.512 14.6188 18.9237C14.1533 17.9375 11.4113 18.0668 10.4854 18.2385ZM27.3189 19.0495V23.2764C27.3189 24.1419 31.9211 24.0892 32.5805 23.6692C33.2129 23.2662 33.1825 19.2689 32.6176 18.6806C31.8722 17.9018 27.6562 17.861 27.3189 19.0495ZM11.7165 26.9185C11.0268 27.0579 8.79567 29.275 8.79567 29.9909C8.79567 30.7067 11.3995 33.3642 12.1128 33.2962C12.9712 32.8882 15.1786 30.9175 15.1365 29.9858C15.1078 29.3346 12.5698 26.7467 11.7165 26.9185ZM27.5652 26.8827V32.4784C27.5652 32.7062 28.0373 32.8933 28.3746 32.8048C28.5837 32.7504 31.7761 30.8325 32.0965 30.5843C32.7761 30.0572 32.6176 29.5233 31.9936 29.0081C31.4894 28.5915 27.953 26.4968 27.5652 26.8844V26.8827ZM18.7706 27.9607C15.946 30.9464 20.9022 35.2413 23.3795 31.9853C25.7253 28.901 21.3188 25.2658 18.7706 27.9607Z" fill="var(--fill-0, white)"/>
<path id="Vector_2" d="M115.367 22.654H103.282C104.351 26.5613 109.245 26.5851 112.002 24.4206L114.377 27.0051C108.807 32.3729 97.9801 29.2239 98.5889 20.5304C99.3713 9.3391 117.529 11.0241 115.368 22.654H115.367ZM103.282 19.92H110.805L111.141 19.3419C109.886 15.2153 103.623 15.4516 103.284 19.92H103.282Z" fill="var(--fill-0, white)"/>
<path id="Vector_3" d="M91.69 29.3684V27.6273C88.0676 31.6043 78.9443 29.3973 81.027 22.9702C81.4823 21.5675 84.049 19.9199 85.3998 19.9199H91.0728C91.8805 19.1922 90.8215 17.6602 90.0862 17.1842C89.071 16.5262 87.1351 16.5619 85.9512 16.7472C84.818 16.9257 83.9107 17.7572 82.8196 17.9204C82.7825 17.0821 81.2496 15.3768 81.6847 14.6949C81.9106 14.3413 84.0574 13.52 84.5852 13.3806C87.6612 12.5696 92.7136 12.5866 94.7541 15.4601C95.3697 16.3272 96.1269 18.5274 96.1269 19.5476V28.996L95.7575 29.3684H91.6883H91.69ZM91.4438 22.654H86.6342C85.4605 22.654 84.5127 25.2112 86.194 26.0818C88.5466 27.2992 92.0424 25.5564 91.4438 22.654Z" fill="var(--fill-0, white)"/>
<path id="Vector_4" d="M65.0531 14.2036L63.4122 17.4121C61.7748 16.7541 57.5301 15.6999 56.1692 17.0516C55.6329 17.5838 55.8117 18.6023 56.4862 18.9814C59.0361 20.4182 64.5185 18.9763 65.4376 23.3835C66.9199 30.4975 55.0545 30.6981 51.0999 27.8807L52.6244 24.6604C54.7476 25.5887 58.0833 26.7228 60.3025 25.6925C61.0732 25.3354 61.3717 24.7488 60.8793 24.0024C59.8388 22.4262 52.3782 23.5756 51.5468 19.4864C50.0324 12.0239 60.5757 11.9695 65.0548 14.2019L65.0531 14.2036Z" fill="var(--fill-0, white)"/>
<path id="Vector_5" d="M120.915 13.2055C121.76 13.838 123.741 17.6925 124.611 17.6857L127.697 13.2055H132.63L126.949 21.0387L132.878 29.3684H127.699L124.346 24.6535L120.424 29.3684H115.614L121.722 21.2903L115.861 13.2055H120.916H120.915Z" fill="var(--fill-0, white)"/>
<path id="Vector_6" d="M74.1783 13.4538H78.1245C77.9609 14.6321 78.5225 16.2491 77.7552 17.1843H74.1783V24.7692C74.1783 24.8304 74.9001 25.5157 75.0721 25.6075C76.2593 26.2315 76.9727 25.6738 78.1211 25.3898L79.0908 28.4606C76.8057 30.4159 72.0889 29.8548 70.3705 27.3639C70.1951 27.1088 69.4919 25.6789 69.4919 25.5157V17.186H67.0264V13.4555H69.4919V9.47687H73.8073L74.1767 9.84923V13.4555L74.1783 13.4538Z" fill="var(--fill-0, white)"/>
</g>
</svg>
