<svg width="164" height="50" viewBox="0 0 164 50" fill="none" xmlns="http://www.w3.org/2000/svg">
<g clip-path="url(#clip0_1374_350)">
<path d="M87.3896 19.1047H83.729V36.1952H88.0461V25.1891L92.6023 22.6356L92.2692 18.7336C92.0776 18.5372 88.1132 20.5112 87.7178 20.9623L87.3896 19.1047ZM129.622 19.1047H126.243V36.1952H130.654V24.2131C131.951 23.7826 134.757 22.2512 136.037 23.0199C136.231 23.1363 136.567 23.5971 136.567 23.7959V36.1965H140.884V24.3537C142.024 23.631 144.452 22.6186 145.79 22.8441C146.148 22.9047 146.797 23.3243 146.797 23.7038V36.1965H151.115V22.4961C151.115 21.3006 150.203 19.5533 149.054 19.0562C146.53 17.9649 142.609 19.5836 140.19 20.5064C139.172 18.205 136.17 18.6124 134.127 19.0586C132.715 19.3666 131.357 19.9183 130.043 20.4918L129.622 19.1059V19.1047ZM158.339 19.1047H154.679V36.1952H158.996V25.1891L163.59 22.5046L163.124 18.7336C162.919 18.5906 159.067 20.4991 158.666 20.9611C158.499 20.9611 158.342 19.3581 158.338 19.1047H158.339Z" fill="white"/>
<path d="M99.8712 36.5663C96.041 36.3226 93.7384 34.6044 93.4859 30.6722C93.3467 28.4981 93.2394 23.8275 94.1582 21.9481C95.8347 18.5215 100.993 18.0316 104.214 19.312C106.01 20.0262 107.474 22.3579 107.474 24.2592V29.2281H97.8078V31.0396C97.8078 31.1439 98.0848 31.8532 98.1641 31.9878C98.5655 32.668 99.4636 32.9554 100.214 33.0245C102.332 33.2221 104.49 32.7723 106.533 32.297L107.155 35.4568C105.727 36.0291 104.177 36.3311 102.642 36.4717C102.294 36.5033 101.78 36.553 101.47 36.5651H99.8736L99.8712 36.5663ZM103.344 25.7918V24.1658C103.344 24.0397 103.047 23.3073 102.953 23.1594C102.146 21.8887 99.4734 21.9444 98.4972 22.9448C98.2483 23.2006 97.8066 24.0106 97.8066 24.3513V25.7906H103.344V25.7918Z" fill="white"/>
<path d="M113.292 36.5663C109.951 36.239 109.168 33.1555 109.456 30.3085C109.935 25.5699 115.255 26.8128 118.641 26.6285V24.167C118.641 23.9415 118.336 23.1534 118.173 22.9581C117.774 22.4792 116.853 22.3034 116.251 22.2597C114.332 22.1179 112.361 22.4355 110.476 22.7278L110.013 19.483C113.035 18.7907 117.824 18.0365 120.64 19.5885C122.032 20.3548 122.958 22.244 122.958 23.796V36.1965H119.392C119.303 35.874 119.244 35.5211 119.119 35.2107C119.081 35.1186 119.171 35.047 118.975 35.0858C117.856 35.8085 116.53 36.2875 115.204 36.4633C114.963 36.4948 114.517 36.5566 114.323 36.5675C114.019 36.5845 113.587 36.5966 113.291 36.5675L113.292 36.5663ZM118.641 29.6937H114.84C114.722 29.6937 113.983 29.986 113.884 30.0939C113.467 30.5498 113.467 31.9939 113.775 32.5129C114.54 33.8006 117.599 32.9469 118.641 32.2485V29.6937Z" fill="white"/>
<path d="M57.0752 35.4519C57.4449 34.631 57.3595 33.3349 57.6572 32.5455C57.6865 32.4679 57.7048 32.4218 57.7915 32.3939C57.9269 32.3503 60.155 32.8923 60.5955 32.9432C61.4838 33.0451 64.1035 33.2524 64.7258 32.668C65.12 32.2981 65.1383 31.1123 65.0077 30.62C64.7039 29.4681 62.0524 29.108 61.0384 28.7891C58.8359 28.0967 57.5181 27.4359 57.3522 24.9139C57.1374 21.6594 57.6731 19.4163 61.2776 18.8512C63.7424 18.4644 66.5671 18.7979 68.9953 19.2902L68.5243 22.7265C67.8044 22.5603 67.0552 22.4318 66.3194 22.3554C65.3433 22.2536 63.0054 22.028 62.1708 22.4282C61.3935 22.8004 61.3593 24.5477 61.9072 25.0509C62.4551 25.5541 65.5714 26.1567 66.5793 26.5568C68.1424 27.1764 69.0746 27.7718 69.265 29.5651C69.7274 33.9411 68.6659 36.2619 64.0206 36.5662H62.4246L59.8707 36.2607L57.0752 35.5441V35.4507V35.4519Z" fill="white"/>
<path d="M77.2538 36.5663C75.7529 36.3723 74.3826 36.0776 73.5761 34.6796C73.4187 34.4068 73.0307 33.3458 73.0307 33.0827V22.4476H70.4023V19.1035H72.8891L73.0294 18.964V14.7384L77.3465 14.1806V19.1035H81.7575L81.4757 22.4476H77.3465V32.0605C77.3465 32.1163 77.6943 32.5771 77.7821 32.651C78.5179 33.2585 80.2286 32.862 81.0998 32.6644L81.5696 35.9139C81.256 35.9661 80.9571 36.091 80.6496 36.1661C80.0114 36.3213 79.0182 36.5178 78.3776 36.5651H77.2513L77.2538 36.5663Z" fill="white"/>
<path d="M129.622 19.1047L130.043 20.4906C131.357 19.9158 132.714 19.3654 134.127 19.0574C136.169 18.6112 139.172 18.2038 140.19 20.5051C142.607 19.5824 146.529 17.9637 149.054 19.055C150.203 19.5521 151.114 21.2993 151.114 22.4949V36.1952H146.797V23.7026C146.797 23.323 146.148 22.9035 145.79 22.8429C144.452 22.6174 142.024 23.6298 140.884 24.3525V36.1952H136.567V23.7947C136.567 23.5959 136.232 23.1363 136.036 23.0187C134.756 22.25 131.951 23.7826 130.654 24.2118V36.194H126.243V19.1035H129.622V19.1047Z" fill="white"/>
<path d="M87.3896 19.1047L87.7178 20.9622C88.1132 20.5124 92.0788 18.5384 92.2692 18.7336L92.6023 22.6355L88.0461 25.1891V36.1952H83.729V19.1047H87.3896Z" fill="white"/>
<path d="M158.339 19.1046C158.343 19.3568 158.5 20.9597 158.667 20.9609C159.068 20.499 162.92 18.5905 163.125 18.7335L163.591 22.5045L158.997 25.189V36.1951H154.68V19.1046H158.34H158.339Z" fill="white"/>
<path d="M29.8316 5.55596C27.468 5.46502 23.6 7.3505 21.821 8.8795C19.1341 11.1882 16.7205 15.4938 17.4087 19.0914L19.9431 18.9738C20.4958 13.0833 24.7665 8.93406 30.6759 8.32901C30.7845 7.31655 31.2165 5.60931 29.8316 5.55718V5.55596ZM28.9616 10.3236C26.7823 10.6704 24.1857 12.6032 23.0692 14.468C22.6202 15.2186 21.1681 18.5058 22.004 19.0902L24.4273 19.0793C24.9593 18.4209 24.8641 17.5721 25.1899 16.7924C26.1527 14.4911 28.3441 13.4131 30.6735 12.8905V10.4728C30.4258 10.1199 29.3838 10.2545 28.9616 10.3224V10.3236ZM31.3471 17.9128C30.7345 18.1117 30.981 19.9317 31.0835 20.5064C36.9368 21.109 41.4137 25.2365 41.8066 31.1609C45.3025 32.1091 44.901 30.4722 44.2299 27.8822C42.7754 22.2731 37.3102 17.6606 31.3483 17.9128H31.3471ZM5.32141 19.4479C4.44409 19.7074 4.898 21.3043 5.04565 22.0245C6.28537 28.0884 11.9447 33.181 18.3092 32.7905L18.4178 30.2636C18.1957 29.9496 16.1519 29.7786 15.5723 29.6113C11.1161 28.3224 7.98389 24.1925 7.69592 19.6079C7.48483 19.2975 5.72408 19.3278 5.32141 19.4479ZM9.90204 19.4333C8.72699 19.8153 10.3682 23.3777 10.8135 24.1198C12.2546 26.5206 15.4393 28.5612 18.3104 28.2217C19.1646 24.9528 18.0932 25.7712 16.108 24.9467C13.7933 23.9852 12.7402 21.7856 12.1826 19.4976L9.90204 19.4321V19.4333ZM31.3471 22.4792C30.7406 22.6793 30.97 24.4956 31.0896 25.0667C34.6257 25.8282 36.6476 27.687 37.3224 31.2676H39.7555C40.6023 26.7885 35.7569 22.2682 31.3471 22.4792ZM25.2192 31.6107C24.7934 31.7526 24.4371 33.7727 24.1064 34.419C23.0375 36.513 20.9876 37.2951 18.8302 37.8734L18.9388 40.4004C22.6324 40.8538 26.2722 37.7376 27.3289 34.3595C28.0818 31.9515 28.0928 31.2373 25.2192 31.6107ZM29.8133 31.6083C29.4252 31.7393 29.0153 34.6069 28.7505 35.3356C27.3155 39.2945 23.1192 42.0858 18.9401 42.3295C18.3019 44.9037 18.6448 45.4614 21.1913 44.9995C25.2839 44.2574 29.2227 41.3316 31.0274 37.5958C31.4679 36.6852 32.987 32.2873 32.0975 31.6726L29.8145 31.6059L29.8133 31.6083Z" fill="white"/>
<path d="M49.3694 30.0585V30.9279C48.6068 31.6227 47.4939 31.3438 46.5556 31.3329C46.2018 30.1665 46.1895 28.9297 45.8979 27.745C44.5167 22.1407 39.8909 17.789 34.278 16.4601C33.541 16.2855 31.9181 16.2673 31.4239 16.0345C30.7418 15.7119 30.6723 13.162 31.7387 13.1159C39.7115 13.5888 46.6788 19.0027 48.6971 26.7035L49.3694 30.0573V30.0585Z" fill="white"/>
<path d="M30.3321 0.92041C31.1899 1.40178 30.6469 2.88349 30.7396 3.7165C29.4889 4.02205 28.2126 4.09966 26.957 4.41612C20.3863 6.07365 15.5835 12.2066 15.4237 18.9398C15.2468 19.2332 13.2481 19.2841 12.8137 19.0925C12.0962 18.5978 13.0504 14.6098 13.3274 13.7041C15.0906 7.93367 20.0678 3.223 25.9101 1.6358L29.24 0.921623H30.3345L30.3321 0.92041Z" fill="white"/>
<path d="M0.134277 19.8382C0.896902 19.1434 2.00972 19.4223 2.94806 19.4332C3.25555 20.6761 3.33364 21.9444 3.65211 23.192C5.35185 29.8488 11.487 34.3534 18.3116 34.7183C18.6838 34.9669 18.5398 36.742 18.4202 37.2477C17.8882 38.0031 13.4576 36.913 12.4888 36.5905C6.94299 34.745 2.25498 29.6718 0.806607 24.0626L0.134277 20.7088V19.8394L0.134277 19.8382Z" fill="white"/>
<path d="M20.0469 49.8458H19.172C18.4729 49.088 18.7535 47.9821 18.7645 47.0497C19.8907 46.7441 21.056 46.7053 22.1969 46.4374C26.9996 45.3073 31.4387 41.4781 33.1275 36.8584C33.6156 35.5234 33.7485 32.851 34.1622 32.0156C34.4367 31.4615 36.012 31.4396 36.5379 31.6106C37.1078 31.7961 36.9223 33.5021 36.8698 34.0538C36.2158 40.8792 30.2307 47.4656 23.5953 49.1316L20.0469 49.8458Z" fill="white"/>
<path d="M5.32093 19.4478C5.72481 19.3277 7.48434 19.2974 7.69544 19.6078C7.9834 24.1924 11.1169 28.3223 15.5718 29.6112C16.1514 29.7785 18.1953 29.9495 18.4173 30.2635L18.3087 32.7904C11.943 33.1796 6.28489 28.0882 5.04516 22.0244C4.89752 21.3042 4.44238 19.7085 5.32093 19.4478Z" fill="white"/>
<path d="M29.8316 5.55587C31.2165 5.60922 30.7846 7.31525 30.676 8.32771C24.7666 8.93155 20.4958 13.082 19.9431 18.9725L17.4087 19.0901C16.7206 15.4925 19.1341 11.1868 21.821 8.8782C23.6 7.3492 27.4681 5.46493 29.8316 5.55466V5.55587Z" fill="white"/>
<path d="M29.8131 31.6082L32.0961 31.6748C32.9856 32.2896 31.4665 36.6874 31.026 37.598C29.2213 41.3338 25.2825 44.2597 21.1899 45.0017C18.6434 45.4637 18.3005 44.9047 18.9387 42.3317C23.1191 42.0868 27.3141 39.2956 28.7491 35.3379C29.0139 34.6092 29.4238 31.7403 29.8119 31.6106L29.8131 31.6082Z" fill="white"/>
<path d="M31.347 17.9127C37.3089 17.6617 42.7754 22.2729 44.2287 27.8821C44.8998 30.472 45.3012 32.1089 41.8054 31.1607C41.4124 25.2363 36.9368 21.1089 31.0822 20.5063C30.9797 19.9315 30.7345 18.1115 31.3458 17.9127H31.347Z" fill="white"/>
<path d="M31.3469 22.4791C35.7567 22.2669 40.6021 26.7884 39.7553 31.2687H37.3222C36.6487 27.6857 34.6256 25.8281 31.0895 25.0666C30.9711 24.4955 30.7405 22.6792 31.3469 22.4791Z" fill="white"/>
<path d="M9.90194 19.4333L12.1825 19.4988C12.7401 21.7869 13.7944 23.9864 16.1079 24.9479C18.0931 25.7724 19.1645 24.954 18.3103 28.223C15.4392 28.5625 12.2545 26.5218 10.8134 24.121C10.3681 23.3789 8.72566 19.8153 9.90194 19.4346V19.4333Z" fill="white"/>
<path d="M25.219 31.6108C28.0926 31.2373 28.0829 31.9515 27.3288 34.3596C26.2721 37.7389 22.6322 40.8539 18.9387 40.4004L18.8301 37.8735C20.9874 37.2951 23.0385 36.513 24.1062 34.419C24.4357 33.7727 24.792 31.7526 25.219 31.6108Z" fill="white"/>
<path d="M28.9612 10.3236C29.3833 10.2557 30.4254 10.1211 30.6743 10.474V12.8918C28.3437 13.4131 26.1523 14.4923 25.1895 16.7937C24.8637 17.5733 24.9589 18.4209 24.4269 19.0805L22.0036 19.0914C21.1677 18.507 22.6198 15.2198 23.0688 14.4693C24.1853 12.6044 26.7831 10.6716 28.9612 10.3248V10.3236Z" fill="white"/>
</g>
<defs>
<clipPath id="clip0_1374_350">
<rect width="163.456" height="48.9255" fill="white" transform="translate(0.134277 0.920349)"/>
</clipPath>
</defs>
</svg>
