<svg width="1503" height="216" viewBox="0 0 1503 216" fill="none" xmlns="http://www.w3.org/2000/svg">
<g clip-path="url(#clip0_1799_3552)">
<path d="M321.997 2.17969H263.023V212.596H321.997V2.17969Z" fill="black"/>
<path d="M487.312 214.24C451.145 214.24 421.732 184.736 421.732 148.456L421.817 65.7844C421.817 59.3695 416.607 54.1441 410.212 54.1441C403.817 54.1441 398.608 59.3695 398.608 65.7844V212.626H344.653V65.7631C344.653 29.5042 374.066 0 410.212 0C446.359 0 475.772 29.5042 475.772 65.7631V92.8246L475.708 95.7134V148.456C475.708 154.849 480.896 160.075 487.291 160.075C491.992 160.075 496.163 157.356 497.879 153.171L543.363 41.4631L543.575 40.9533C557.847 7.09461 581.882 0 599.542 0H600.707C636.853 0 666.266 29.5042 666.266 65.7631V212.626H612.289V65.7631C612.289 60.9414 609.41 56.6719 604.92 54.9301C603.565 54.399 602.146 54.1229 600.707 54.1229C595.9 54.1229 591.643 57.033 589.907 61.5361L541.606 179.256C532.67 201.007 513.506 213.688 488.879 214.219H487.333L487.312 214.24Z" fill="black"/>
<path d="M0 156.379H136.772C165.507 156.379 188.017 134.797 188.017 107.247C188.017 79.6975 165.041 56.247 136.793 56.247H67.8884C61.4087 56.247 56.0937 61.5786 56.0937 68.0785V141.531H0V65.7631C0 29.5042 29.4127 0 65.5591 0H139.652C198.816 0 246.948 48.1116 246.948 107.226C246.948 166.341 199.811 212.604 139.652 212.604H0V156.357V156.379Z" fill="black"/>
<path d="M789.845 212.604C729.685 212.604 682.549 166.32 682.549 107.226C682.549 48.0904 730.681 0 789.845 0H840.306C899.47 0 947.602 48.1116 947.602 107.226C947.602 166.341 900.465 212.604 840.306 212.604H789.845ZM837.426 156.379C866.161 156.379 888.67 134.797 888.67 107.247C888.67 79.6975 865.695 56.247 837.447 56.247H792.746C764.498 56.247 741.522 79.1239 741.522 107.247C741.522 134.797 764.032 156.379 792.767 156.379H837.468H837.426Z" fill="black"/>
</g>
<path fill-rule="evenodd" clip-rule="evenodd" d="M1095.25 0C1035.67 0 987.372 48.2995 987.372 107.88C987.372 167.46 1035.67 215.76 1095.25 215.76H1395.12C1454.7 215.76 1503 167.46 1503 107.88C1503 48.2995 1454.7 0 1395.12 0H1095.25ZM1166.03 147.933C1171.28 150.561 1177.76 151.876 1185.46 151.876C1193.2 151.876 1199.67 150.561 1204.89 147.933C1210.11 145.266 1214.02 141.53 1216.61 136.723C1219.2 131.917 1220.5 126.265 1220.5 119.768V69.3548H1196.11V118.191C1196.11 122.848 1195.24 126.265 1193.51 128.443C1191.79 130.621 1189.1 131.71 1185.46 131.71C1181.74 131.71 1179.02 130.621 1177.29 128.443C1175.56 126.265 1174.7 122.848 1174.7 118.191V69.3548H1150.31V119.768C1150.31 126.265 1151.61 131.917 1154.2 136.723C1156.83 141.53 1160.77 145.266 1166.03 147.933ZM1240.43 150.58V69.3548H1264.82V150.58H1240.43ZM1286.04 69.3548V150.58H1339.39V130.415H1310.43V69.3548H1286.04ZM1355.99 150.58V69.3548H1386.69C1395.63 69.3548 1403.27 71.1198 1409.62 74.6497C1415.96 78.142 1420.75 82.9674 1423.98 89.126C1427.21 95.247 1428.83 102.232 1428.83 110.08C1428.83 117.928 1427.21 124.913 1423.98 131.034C1420.75 137.118 1415.96 141.905 1409.62 145.398C1403.31 148.853 1395.67 150.58 1386.69 150.58H1355.99ZM1395.99 128.499C1393.28 130.264 1390.11 131.147 1386.47 131.147H1379.76L1379.71 88.788H1386.41C1390.05 88.788 1393.23 89.708 1395.93 91.5481C1398.67 93.3506 1400.77 95.8666 1402.24 99.0961C1403.7 102.326 1404.44 105.987 1404.44 110.08C1404.44 114.173 1403.7 117.816 1402.24 121.008C1400.81 124.2 1398.73 126.697 1395.99 128.499ZM1067.74 69.3548V150.58H1109.88C1114.8 150.58 1119.11 149.51 1122.83 147.369C1126.59 145.191 1129.48 142.262 1131.51 138.582C1133.53 134.864 1134.55 130.79 1134.55 126.359C1134.55 123.317 1134 120.482 1132.91 117.853C1131.86 115.225 1130.27 112.934 1128.13 110.981C1126.02 108.991 1123.47 107.451 1120.47 106.362V106.193C1122.64 105.255 1124.5 103.997 1126.04 102.419C1127.58 100.805 1128.76 98.9646 1129.59 96.8993C1130.42 94.7963 1130.83 92.5432 1130.83 90.1399C1130.83 86.3471 1129.87 82.8736 1127.96 79.7192C1126.04 76.5273 1123.3 74.0113 1119.73 72.1712C1116.17 70.2936 1112 69.3548 1107.23 69.3548H1067.74ZM1101.54 132.442C1103.19 132.442 1104.64 132.142 1105.88 131.541C1107.15 130.94 1108.15 130.02 1108.86 128.781C1109.58 127.542 1109.93 126.002 1109.93 124.162C1109.93 122.435 1109.58 120.989 1108.86 119.825C1108.15 118.623 1107.15 117.722 1105.88 117.121C1104.6 116.52 1103.14 116.22 1101.48 116.22H1092.13V132.442H1101.54ZM1100.07 101.406C1101.58 101.406 1102.89 101.124 1104.02 100.561C1105.14 99.9973 1106.01 99.1712 1106.61 98.0822C1107.21 96.9931 1107.51 95.66 1107.51 94.0829C1107.51 92.5432 1107.19 91.2664 1106.55 90.2525C1105.95 89.2011 1105.11 88.45 1104.02 87.9994C1102.93 87.5112 1101.67 87.2672 1100.24 87.2672H1092.13V101.406H1100.07Z" fill="black"/>
<defs>
<clipPath id="clip0_1799_3552">
<rect width="947.6" height="214.24" fill="white"/>
</clipPath>
</defs>
</svg>
