<svg preserveAspectRatio="none" width="100%" height="100%" overflow="visible" style="display: block;" viewBox="0 0 107 23" fill="none" xmlns="http://www.w3.org/2000/svg">
<g id="Group">
<path id="Vector" d="M30.3146 4.92402H26.654V22.0146H30.971V11.0085L35.5273 8.4549L35.1941 4.55299C35.0026 4.35656 31.0382 6.33055 30.6428 6.78161L30.3146 4.92402ZM72.5469 4.92402H69.1682V22.0146H73.5792V10.0324C74.8763 9.60195 77.6815 8.07053 78.9615 8.83927C79.1555 8.95567 79.4923 9.41643 79.4923 9.61529V22.0158H83.8093V10.173C84.949 9.45038 87.3772 8.43792 88.7145 8.66345C89.0733 8.72408 89.7224 9.14361 89.7224 9.52313V22.0158H94.0395V8.31546C94.0395 7.11991 93.128 5.37265 91.9786 4.87552C89.4552 3.78424 85.5335 5.40297 83.1151 6.3257C82.0974 4.02432 79.0945 4.43173 77.0519 4.87794C75.6401 5.18592 74.282 5.73762 72.9679 6.31115L72.5469 4.92523V4.92402ZM101.264 4.92402H97.6037V22.0146H101.921V11.0085L106.515 8.32394L106.049 4.55299C105.844 4.40991 101.992 6.31842 101.591 6.7804C101.424 6.7804 101.267 5.17744 101.263 4.92402H101.264Z" fill="var(--fill-0, white)"/>
<path id="Vector_2" d="M42.7959 22.3856C38.9657 22.1419 36.6632 20.4238 36.4106 16.4915C36.2715 14.3175 36.1641 9.64682 37.0829 7.7674C38.7595 4.3408 43.9173 3.85094 47.1386 5.13137C48.9347 5.84555 50.399 8.17723 50.399 10.0785V15.0474H40.7326V16.8589C40.7326 16.9632 41.0095 17.6725 41.0889 17.8071C41.4903 18.4874 42.3884 18.7747 43.1388 18.8438C45.2571 19.0415 47.4144 18.5916 49.4582 18.1163L50.0793 21.2762C48.6517 21.8485 47.102 22.1504 45.567 22.291C45.2192 22.3226 44.7043 22.3723 44.3944 22.3844H42.7984L42.7959 22.3856ZM46.2686 11.6111V9.98511C46.2686 9.85901 45.9721 9.12664 45.8781 8.97872C45.0704 7.70799 42.3981 7.76376 41.422 8.7641C41.1731 9.01994 40.7313 9.82991 40.7313 10.1706V11.6099H46.2686V11.6111Z" fill="var(--fill-0, white)"/>
<path id="Vector_3" d="M56.2168 22.3857C52.8759 22.0583 52.0925 18.9749 52.3805 16.1278C52.86 11.3893 58.1801 12.6321 61.5662 12.4478V9.98639C61.5662 9.76086 61.2611 8.97272 61.0976 8.7775C60.6986 8.29855 59.7774 8.12274 59.1758 8.07909C57.2564 7.93722 55.2858 8.2549 53.4006 8.54712L52.9381 5.3024C55.9593 4.61005 60.7486 3.85585 63.5649 5.40789C64.9571 6.17421 65.8832 8.06332 65.8832 9.61536V22.0159H62.3166C62.2275 21.6933 62.1689 21.3405 62.0433 21.0301C62.0054 20.9379 62.0957 20.8664 61.8993 20.9052C60.7804 21.6279 59.4552 22.1068 58.1289 22.2826C57.8873 22.3142 57.4419 22.376 57.2479 22.3869C56.9441 22.4039 56.5121 22.416 56.2156 22.3869L56.2168 22.3857ZM61.5662 15.5131H57.7652C57.6469 15.5131 56.9074 15.8053 56.8086 15.9132C56.3913 16.3691 56.3913 17.8132 56.7 18.3322C57.4651 19.6199 60.5241 18.7663 61.5662 18.0679V15.5131Z" fill="var(--fill-0, white)"/>
<path id="Vector_4" d="M-0.000118935 21.2713C0.369602 20.4504 0.28419 19.1542 0.581919 18.3648C0.611204 18.2872 0.629504 18.2411 0.716138 18.2133C0.85158 18.1696 3.07967 18.7116 3.52016 18.7625C4.40846 18.8644 7.02823 19.0717 7.65053 18.4873C8.04466 18.1175 8.06296 16.9316 7.9324 16.4393C7.62857 15.2874 4.97708 14.9273 3.96309 14.6084C1.76063 13.9161 0.442816 13.2552 0.276869 10.7332C0.0621136 7.47876 0.597779 5.23558 4.20225 4.67054C6.66705 4.28375 9.49182 4.61719 11.92 5.10948L11.449 8.54578C10.7291 8.37966 9.97989 8.25114 9.24411 8.17475C8.26795 8.07289 5.93005 7.84736 5.09544 8.2475C4.31817 8.61974 4.284 10.367 4.83187 10.8702C5.37974 11.3734 8.49613 11.976 9.50402 12.3762C11.0671 12.9958 11.9993 13.5911 12.1897 15.3844C12.6521 19.7604 11.5906 22.0812 6.94526 22.3856H5.34924L2.79536 22.08L-0.000118935 21.3634V21.27V21.2713Z" fill="var(--fill-0, white)"/>
<path id="Vector_5" d="M20.1784 22.3856C18.6775 22.1916 17.3072 21.897 16.5007 20.4989C16.3433 20.2261 15.9552 19.1651 15.9552 18.902V8.26695H13.3269V4.9228H15.8137L15.954 4.78336V0.557705L20.2711 -5.70408e-05V4.9228H24.6821L24.4002 8.26695H20.2711V17.8799C20.2711 17.9356 20.6188 18.3964 20.7067 18.4704C21.4425 19.0778 23.1532 18.6813 24.0244 18.4837L24.4942 21.7333C24.1806 21.7854 23.8817 21.9103 23.5742 21.9855C22.936 22.1407 21.9428 22.3371 21.3022 22.3844H20.1759L20.1784 22.3856Z" fill="var(--fill-0, white)"/>
<path id="Vector_6" d="M72.5467 4.92401L72.9676 6.30993C74.2818 5.73519 75.6386 5.18471 77.0516 4.87673C79.0943 4.43052 82.0972 4.02311 83.1148 6.32448C85.532 5.40175 89.4537 3.78303 91.9783 4.8743C93.1278 5.37144 94.0393 7.11869 94.0393 8.31424V22.0146H89.7222V9.52192C89.7222 9.1424 89.073 8.72286 88.7143 8.66224C87.377 8.43671 84.9488 9.44917 83.8091 10.1718V22.0146H79.492V9.61407C79.492 9.41521 79.1565 8.95567 78.9613 8.83805C77.6813 8.06931 74.876 9.60194 73.579 10.0312V22.0134H69.1679V4.9228H72.5467V4.92401Z" fill="var(--fill-0, white)"/>
<path id="Vector_7" d="M30.3146 4.92402L30.6428 6.78161C31.0382 6.33176 35.0038 4.35777 35.1941 4.55299L35.5273 8.4549L30.971 11.0085V22.0146H26.654V4.92402H30.3146Z" fill="var(--fill-0, white)"/>
<path id="Vector_8" d="M101.264 4.92391C101.268 5.17612 101.425 6.77908 101.592 6.78029C101.992 6.31832 105.845 4.4098 106.05 4.55288L106.516 8.32383L101.922 11.0084V22.0145H97.6046V4.92391H101.265H101.264Z" fill="var(--fill-0, white)"/>
</g>
</svg>
