<svg width="133" height="43" viewBox="0 0 133 43" fill="none" xmlns="http://www.w3.org/2000/svg">
<g clip-path="url(#clip0_1374_341)">
<path d="M19.2532 0.346791C35.7443 -1.25828 47.5659 16.8328 39.5707 31.5232C32.1658 45.1272 13.0203 46.3684 4.05881 33.6724C-5.41699 20.2486 3.22574 1.90595 19.2532 0.346791ZM30.0696 9.27669C29.4474 9.3345 26.9346 11.8934 26.9532 12.5889C26.965 13.0003 29.5367 15.714 30.2568 15.6953C31.1034 15.6494 33.4677 13.286 33.3682 12.3423C33.3126 11.8118 30.7088 9.21719 30.0696 9.27669ZM9.43838 9.84629V15.3161L10.0438 15.6936C11.0759 14.9335 15.8079 13.3132 14.2176 11.7387C13.7488 11.2745 10.3811 9.3277 9.84312 9.49433L9.43838 9.84629ZM18.8939 14.6122C21.4067 17.2646 25.8958 13.7314 23.5028 10.5876C21.1099 7.44379 16.0271 11.5857 18.8939 14.6122ZM18.5634 18.7983C18.3358 19.6178 18.5634 22.8722 18.5634 24.0199C18.5634 24.1712 18.9648 24.3888 19.1823 24.4058C19.8957 24.4653 23.6563 22.2516 23.9278 21.2807C23.9008 20.9373 20.0424 18.4055 19.555 18.2712C19.1671 18.1641 18.6511 18.482 18.5634 18.7983ZM10.6087 18.4854C9.89877 18.6164 9.41309 18.8357 9.24614 19.5991C9.07918 20.3626 9.04883 23.3959 9.55643 23.9026C9.95442 24.2987 14.0574 24.2868 14.5195 23.9196C15.0153 23.5268 15.0203 19.759 14.7421 19.1707C14.2766 18.1845 11.5346 18.3137 10.6087 18.4854ZM27.4422 19.2965V23.5234C27.4422 24.3888 32.0444 24.3361 32.7038 23.9162C33.3362 23.5132 33.3058 19.5158 32.7409 18.9275C31.9955 18.1488 27.7795 18.108 27.4422 19.2965ZM11.8398 27.1654C11.1501 27.3048 8.91898 29.522 8.91898 30.2378C8.91898 30.9536 11.5228 33.6112 12.2361 33.5432C13.0945 33.1351 15.3019 31.1645 15.2598 30.2327C15.2311 29.5815 12.6931 26.9937 11.8398 27.1654ZM27.6885 27.1297V32.7253C27.6885 32.9532 28.1606 33.1402 28.4979 33.0518C28.707 32.9974 31.8994 31.0795 32.2198 30.8312C32.8994 30.3041 32.7409 29.7702 32.1169 29.2551C31.6127 28.8385 28.0763 26.7437 27.6885 27.1314V27.1297ZM18.8939 28.2077C16.0693 31.1934 21.0255 35.4883 23.5028 32.2323C25.8486 29.1479 21.4421 25.5127 18.8939 28.2077Z" fill="white"/>
<path d="M115.49 22.901H103.406C104.475 26.8082 109.369 26.832 112.126 24.6676L114.501 27.252C108.93 32.6198 98.1038 29.4709 98.7126 20.7773C99.4951 9.58603 117.652 11.271 115.492 22.901H115.49ZM103.406 20.1669H110.929L111.264 19.5888C110.01 15.4622 103.746 15.6986 103.408 20.1669H103.406Z" fill="white"/>
<path d="M91.8136 29.6154V27.8743C88.1912 31.8512 79.0679 29.6443 81.1506 23.2172C81.6059 21.8144 84.1726 20.1669 85.5234 20.1669H91.1964C92.0041 19.4391 90.9451 17.9072 90.2098 17.4311C89.1946 16.7731 87.2586 16.8088 86.0748 16.9941C84.9415 17.1727 84.0343 18.0041 82.9432 18.1673C82.9061 17.3291 81.3732 15.6237 81.8082 14.9419C82.0342 14.5882 84.181 13.767 84.7088 13.6276C87.7848 12.8165 92.8372 12.8335 94.8777 15.707C95.4933 16.5742 96.2505 18.7743 96.2505 19.7945V29.243L95.8811 29.6154H91.8119H91.8136ZM91.5674 22.9009H86.7578C85.5841 22.9009 84.6363 25.4582 86.3176 26.3287C88.6701 27.5461 92.166 25.8033 91.5674 22.9009Z" fill="white"/>
<path d="M65.1768 14.4506L63.5359 17.659C61.8985 17.001 57.6538 15.9468 56.2929 17.2986C55.7566 17.8308 55.9354 18.8492 56.6099 19.2284C59.1598 20.6651 64.6422 19.2233 65.5613 23.6304C67.0436 30.7444 55.1782 30.9451 51.2236 28.1277L52.7481 24.9074C54.8713 25.8357 58.207 26.9698 60.4262 25.9394C61.1969 25.5824 61.4954 24.9958 61.003 24.2493C59.9625 22.6732 52.5019 23.8226 51.6705 19.7334C50.1562 12.2708 60.6994 12.2164 65.1785 14.4489L65.1768 14.4506Z" fill="white"/>
<path d="M121.038 13.4524C121.883 14.0849 123.864 17.9394 124.735 17.9326L127.821 13.4524H132.753L127.072 21.2856L133.001 29.6153H127.822L124.47 24.9004L120.547 29.6153H115.738L121.846 21.5373L115.984 13.4524H121.04H121.038Z" fill="white"/>
<path d="M74.3019 13.7008H78.248C78.0844 14.8791 78.646 16.4961 77.8787 17.4312H74.3019V25.0162C74.3019 25.0774 75.0236 25.7626 75.1957 25.8544C76.3829 26.4784 77.0962 25.9207 78.2446 25.6368L79.2143 28.7075C76.9293 30.6628 72.2124 30.1017 70.494 27.6108C70.3186 27.3558 69.6154 25.9258 69.6154 25.7626V17.4329H67.1499V13.7025H69.6154V9.72382H73.9309L74.3002 10.0962V13.7025L74.3019 13.7008Z" fill="white"/>
</g>
<defs>
<clipPath id="clip0_1374_341">
<rect width="132.877" height="42.2538" fill="white" transform="translate(0.123047 0.246033)"/>
</clipPath>
</defs>
</svg>
