<svg xmlns="http://www.w3.org/2000/svg" viewBox="0 0 128 128">
  <path fill="#83CD29" d="M64 6.7c-2.3 0-4.5.6-6.5 1.7L19.8 29.6c-4 2.3-6.5 6.6-6.5 11.3v42.4c0 4.7 2.5 9 6.5 11.3l37.7 21.2c2 1.1 4.2 1.7 6.5 1.7s4.5-.6 6.5-1.7l37.7-21.2c4-2.3 6.5-6.6 6.5-11.3V40.9c0-4.7-2.5-9-6.5-11.3L70.5 8.4c-2-1.1-4.2-1.7-6.5-1.7z"/>
  <path fill="#fff" d="M64 98.7c-1.1 0-2.2-.3-3.2-.8l-10.1-6c-1.5-.8-.8-1.1-.3-1.3 2-.7 2.4-.9 4.6-2.1.2-.1.5-.1.8.1l7.8 4.6c.3.2.7.2 1 0l30.4-17.5c.3-.2.5-.5.5-.9V39.3c0-.4-.2-.7-.5-.9L64.5 21c-.3-.2-.7-.2-1 0L33.1 38.4c-.3.2-.5.5-.5.9v35.2c0 .4.2.7.5.9l8.3 4.8c4.5 2.3 7.3-.4 7.3-3.1V42.8c0-.5.4-.9.9-.9h4c.5 0 .9.4.9.9v34.4c0 6-3.3 9.5-9 9.5-1.8 0-3.2 0-7.1-1.9l-8-4.6c-2-.8-3.2-3.5-3.2-5.8V39.3c0-2.4 1.2-4.6 3.2-5.8l30.4-17.6c1.9-1.1 4.5-1.1 6.4 0L97 33.5c2 1.2 3.2 3.4 3.2 5.8v35.2c0 2.4-1.2 4.6-3.2 5.8L66.6 97.9c-1 .5-2.1.8-3.2.8z"/>
  <path fill="#fff" d="M72.5 74.4c-13.3 0-16.1-6.1-16.1-11.2 0-.5.4-.9.9-.9h4.1c.5 0 .8.3.9.8.6 4.1 2.4 6.2 10.2 6.2 6.3 0 9-1.4 9-4.7 0-1.9-.8-3.3-10.5-4.3-8.1-.8-13.1-2.6-13.1-9.1 0-6 5-9.6 13.4-9.6 9.5 0 14.1 3.3 14.7 10.3 0 .3-.1.5-.3.7-.2.2-.4.3-.6.3h-4.1c-.4 0-.8-.3-.9-.7-.9-4.2-3.3-5.6-8.8-5.6-6.5 0-7.2 2.3-7.2 4 0 2.1.9 2.7 10.2 3.9 9.2 1.2 13.4 2.8 13.4 9.4-.1 6.5-5.4 10.2-14.8 10.2z"/>
</svg>
